<svg version="1" xmlns="http://www.w3.org/2000/svg" width="666.667" height="666.667" viewBox="0 0 500.000000 500.000000"><path d="M483.8 11c-5.3 1.6-14.3 2.1-17 1.1-2.2-.8-2.6-.7-2.2.3.4 1-.8 1.5-4.3 1.8-2.6.2-4.9 0-5.1-.4-.6-1.3-2.9-.9-3.5.6-.4 1-2 1.3-5.8 1-3.5-.2-5.8.1-6.8 1-.9.7-2.4 1.4-3.3 1.5-1 0-2.4.2-3 .2-.7.1-3.4-.2-6-.6-3-.4-4.8-.4-4.8.3 0 1.4-9 2.4-10.6 1.1-.9-.7-1.5-.6-2.1.3-.9 1.5-1.5 1.6-13.8 2.1-4.9.3-10.1.9-11.5 1.5-3.4 1.3-10.3.6-13.7-1.4l-2.8-1.6 2.6 2.4 2.6 2.4-8.6.2c-4.7.1-10.2-.2-12-.8-3.8-1.1-5.1-.6-3.3 1.2 1.5 1.5 1.6 2.8.2 2.8-.5 0-1-.7-1-1.5s-.4-1.5-1-1.5c-.5 0-1 .4-1 .8 0 1.8-13.3 3.6-20.5 2.8-1.6-.2-3.6.1-4.2.6-.7.6-1.9.8-2.8.5-.8-.4-1.7-.2-2 .3-.3.5-1.8.9-3.3.9-1.5-.1-4 .3-5.6.7-1.9.5-3.1.3-3.7-.7-.7-1.1-.9-1.1-.9.3 0 1-1.1 1.8-2.7 2.2-3.5.6-12.5 1.8-17.8 2.2-2.2.2-6.9.8-10.5 1.4-3.6.6-10.3 1.1-15 1.2-4.7.1-8.8.6-9.2 1.2-.4.6-3.1 1.1-6 1.2-7.3.3-16 1.1-17.8 1.8-.8.2-2.8.5-4.5.6-10 .3-13.1.6-14.1 1.2-.6.4-4.4.7-8.3.6-4.3 0-7.7.4-8.3 1-1.7 1.7-2.8 1.5-2.8-.5 0-1.5-.2-1.4-1.5.3-1 1.3-1.4 1.5-1.5.5 0-1.1-.9-1.2-4.3-.6-2.3.4-5.9.7-8 .6-2.5 0-4 .4-4.4 1.5-.3.8-1.5 1.4-2.7 1.2-1.1-.1-2.6.1-3.2.5-.7.4-1.4 0-1.8-.8-.8-2.1-2.8-1.9-4.9.6-1.1 1.3-2.4 1.8-3.7 1.4-1-.3-2.1-.2-2.4.3-.9 1.4-12.3.6-14.4-.9-1.5-1.3-1.6-1.2-.3.4 1.8 2.3 1.1 2.8-4.1 3.2-2.4.2-4.3.4-4.3.5 0 .1-1.5.3-3.3.4-4.1.5-4.9-.7-2.2-3.4 2.3-2.3 2.4-2.9 1-5-.8-1.2-1-1.2-1 .5 0 1.1-1.2 2.8-2.5 3.8-2.4 1.7-2.5 1.7-2.6 0 0-1.1-.3-1.3-.6-.5-.7 1.7-9.5 6-11 5.5-.7-.3-1.3 0-1.3.6s-.8 1.1-1.7 1.1c-.9 0-1.4-.3-1-.6.3-.3-.2-1.5-1.3-2.6-1.7-1.8-2-1.9-4.7-.5l-2.8 1.5 2.7.7c4.3 1.1 2.1 2.7-2.8 2.2-2.8-.4-4.4-.2-4.7.6-.3.9-.9.9-2.6-.1-2.7-1.6-3.1-1.5-3.1.3 0 1.9-5.6 2.1-6.3.2-.4-1-.6-1-.6 0-.1 1.5-4.8 1.8-5.3.4-.1-.5-1.6-.7-3.1-.4-2.1.4-2.5.8-1.5 1.4.7.5 2 .6 2.9.4.9-.3 2.2.1 2.9 1 .7.9 2.1 1.3 3.5.9l2.2-.5-.1 22c-.1 20.5-.2 22.1-1.9 22.1-1.6 0-1.6.2-.2 2.4 1.4 2.1 1.5 9.6 1 67.7-.3 36-.7 73.3-1 82.9-.9 38-1.9 139.9-1.6 155.2.1 3.7 2.5 3.6 7.5-.2 2.2-1.7 4.6-3 5.3-3 .8 0 3.1-.9 5.3-2 2.2-1.1 4.8-2 5.8-2 1.1 0 3.5-1.3 5.3-3 1.9-1.6 3.9-3 4.6-3 .6 0 1.5-.9 1.8-2.1.4-1.1 1.2-1.8 1.8-1.6 1.7.6 4.9-1.2 4.2-2.4-.4-.5.9-.9 2.8-.9 2.2 0 3.7-.6 4.1-1.5.3-.8 1.1-1.2 1.9-.9.8.3 2-.2 2.7-1.1.7-.8 2.1-1.5 3.1-1.5s2.1-.5 2.4-1c.4-.6 1.6-.8 2.6-.5 2.3.8 8.8-2 9.6-4.1.3-.8 1.5-1.4 2.8-1.4 1.2 0 3.2-.9 4.5-2 1.3-1.1 2.9-2 3.5-2 .7 0 1.8-.6 2.4-1.4.6-.7 2.9-1.6 5-2 2.7-.4 4.8-1.6 6.5-3.7 2.4-2.8 2.6-3.9 2.6-11.8 0-8.3-.1-8.8-3.1-12.1-3.2-3.5-9.9-16.3-9.9-18.9 0-.8-1.3-3.7-2.9-6.6-9.4-16.6-13.1-47.3-9.9-82.9 1.3-14.3.8-19-3.4-33.3-1-3.5-.9-5.5.5-12 1.7-7.8 2.5-11.8 4.8-24.8 1.1-6.3 3.6-16.4 5.4-22.3.6-1.8.4-2.1-.9-1.6-1.5.6-2.1-.9-1.9-5.4.1-.7-.5-1.1-1.2-.8-1.8.7-3.8-4.5-2.9-7.9.4-1.6.2-3-.5-3.4-.8-.5-.8-2.6 0-7.6.5-3.9 1.3-8.7 1.6-10.9.6-4.4-1.1-8.4-4.2-9.7-1.3-.5-1.5-.8-.5-.9 1.9-.1 5.3-4.7 4.5-6.1-.4-.5-1.9-1.5-3.3-2-2.4-.9-2.5-1.2-1-2 1.2-.7 2.7-.5 4.8.6 2.9 1.5 3.2 1.5 6-.5 1.6-1.1 3.2-2.9 3.5-4 .3-1.1.9-1.9 1.3-1.8 1.9.5 9.4-2.8 12.1-5.3 1.7-1.5 3.9-3 5-3.4 2.2-.7 3.7-3.5 1.8-3.5-2.6 0 1.9-2 4.6-2 1.5 0 5.3-.9 8.5-2.1 4.1-1.5 8.8-2.2 16.7-2.5 6-.3 11.4-.9 11.9-1.4 1.6-1.6 7.2-1.2 8.7.6.7.9 2.1 1.3 3.4 1 1.2-.3 4.8-.1 8.1.4 3.2.5 10 1 14.9 1.1 5 .1 9.9.6 11 1.2 1.1.6 2.9 1.2 4 1.4 1.1.2 3.8.9 6 1.7 2.2.8 5.5 1.7 7.2 2.1 1.8.4 3.6 1.2 4 1.8.5.7 1.9 1.3 3.3 1.5 5 .5 6 .9 8.2 2.9 3.8 3.4 8.4 4 5.7.7-.6-.7-.9-2.1-.7-3.1.2-1.3.9-.7 2.2 2.2 1.1 2.2 1.9 4.5 1.9 5.2 0 .7 1.4 1.7 3 2.4 2.3 1 3.3 1 4.9 0 1.2-.7 1.7-.8 1.3-.2-1.1 1.9.5 3.2 2.6 2 1.4-.7 1.8-1.6 1.4-3-1.1-3.3 1.2-2.1 2.6 1.3 1.1 3 1.3 3.1 1.6 1 .4-2.1 4.3-3.3 4.3-1.3 0 1.8 5.2 7.1 7 7.1 1.2 0 1.8.8 1.8 2.4 0 1.4 1 4.5 2.2 7.1 1.2 2.6 2.8 6.5 3.5 8.8.7 2.3 1.8 4.1 2.4 3.9.6-.1 1.1.6 1.1 1.7 0 1 .7 2.5 1.6 3.2 2.5 2 5.4 11.2 6.9 21.4.8 6 1.4 9.1 2.6 14 3.1 13.2 2.6 53.4-.8 58.9-1 1.6-1.1 9-.2 10.2 1.7 2.1 1.8 12.4.2 16.1-.9 2.3-1.1 3.8-.5 4.2.6.4.4 1.4-.5 2.6-1.5 1.8-1.5 1.9-.9.1.5-1.5.4-1.7-.8-.7-.8.6-1.2 2-.9 3.1.4 1.6-2 7.3-3.7 9-.3.3-1.4 1.8-2.3 3.3-1.2 1.8-2.4 2.6-3.3 2.3-.8-.3-1.2-.2-.9.3.3.5-.5 1.7-1.7 2.5-4.8 3.4-14.1 13.2-15.4 16.3-.8 1.9-1.4 6.9-1.4 12 0 6.1-.3 8.3-1 7.3-.7-1.1-1-.4-1 2.5 0 2.3.4 4.5.9 5 .4.6 1.3 2.8 1.9 5 1.7 6.6 5.7 15.3 8.9 19.3 3.5 4.4 4.5 6.9 7.4 18.7 1.6 6.7 2.9 9.7 5 11.8 1.5 1.5 3.2 2.7 3.7 2.7s1.7.9 2.7 2c1 1.1 2 1.8 2.3 1.5.3-.3 1.1.4 1.9 1.5.8 1.1 2.3 2 3.4 2 1 0 1.9.4 1.9 1 0 .5.7 1 1.6 1 .8 0 3 1.1 4.8 2.5 1.8 1.4 3.9 2.5 4.7 2.5.8 0 2.7 1.1 4.3 2.5 1.6 1.3 3.7 2.7 4.7 3 1.1.4 1.9 1.1 1.9 1.6s.5.9 1.1.9c.5 0 2.9.9 5.3 1.9 2.3 1.1 5.3 2.1 6.7 2.3 1.3.2 4 1.4 5.9 2.8 1.8 1.3 4.1 2.5 4.9 2.6.9.1 3.6.7 6.1 1.4 2.5.6 5.8 1.4 7.5 1.7 3.1.6 10.8 4.6 13.6 6.9.8.8 2.2 1.4 3 1.4.8 0 1.9.4 2.5.9.5.5 4.7 2.2 9.4 3.9 9.3 3.3 26.5 11 29 12.9 4.4 3.6 9.4 8.6 15.5 15.8 3.7 4.4 7.2 8.4 7.7 9 1.2 1.3 1-399.6-.2-401.5-.8-1.3-1.4-1-3.4 1.3-2.5 2.9-5.1 3-8.3.5-.8-.7-2.3-.7-4.3 0-1.8.7-3.2.7-3.5.1-.4-.5.1-.9.9-.9.9 0 1.6-.4 1.6-.8 0-.5.8-1 1.8-1.1 4.6-.5 6.4-.2 7.7 1.5 1.3 1.7 1.6 1.7 2.5.4.6-.8 1-2.4.9-3.5-.3-4.2.1-5.4 1.5-4.9.8.3 1.7 1.5 2.1 2.7.7 2.2.8 2.2 1.2-.3.3-1.3 0-2.6-.6-2.8-.6-.2-1.1-1.1-1.2-2 0-1.1-.2-1.2-.6-.5-.2.7-1.1 1.3-1.9 1.3-.8 0-1.4.7-1.4 1.5s-.7 1.5-1.5 1.5c-1.8 0-2-2.1-.2-3.9 1-1.1.9-1.3-.5-.8-2 .7-2.2 0-.8-2.3.7-1.2 1.3-1.2 2.7-.4 1.4.8 2.3.8 3.9-.3 1.9-1.2 2-1.8 1.3-6.1-1.2-6.4-5.1-14.1-9.1-17.8-2.7-2.6-3.8-3-6-2.4zm4.3 28.5c.5-.4.9-.1.9.5s-.6 1-1.2.8c-.7-.1-2.4.2-3.6.6-2 .7-2.3 1.3-2 4.1.3 2.7.1 3.2-.9 2.3-.7-.6-1.3-1.7-1.3-2.4 0-.8-.4-1.4-1-1.4-.5 0-1 .4-1 1 0 .5-1.2 1.6-2.8 2.4-2.6 1.3-2.8 1.3-3.9-1.1-1.1-2.4-1.1-2.5 1.2-1.9 2.8.7 3.1.1 1.1-2-1.7-1.6-3.6-1.9-3.6-.4 0 .6-1.1.8-2.6.4-2.3-.6-2.5-.4-2.1 2.1.2 1.5 1.2 3.4 2.2 4.1 1 .8 1.5 1.7 1.1 2.1-.4.4-1.1.2-1.5-.6-.5-.7-1.2-1.1-1.6-.9-.8.3-1.6-.9-3.3-5.2-.9-2.3-1.1-2.3-1.8-.6-.4 1.1-.2 2.7.4 3.7.7 1 1.2 2.6 1.2 3.4 0 2.4-1.9 1.7-2.6-.9-.4-1.7-1.1-2.2-2.5-1.9-1 .3-1.9 0-1.9-.6s-.7-1.1-1.6-1.1c-2.3 0-1.1 2.4 1.4 2.8 1.2.2 2.2.8 2.2 1.3 0 1.4-3.4 1.1-5.6-.6-1-.8-3.1-1.5-4.6-1.5-2 0-2.6-.4-2.2-1.5.7-1.7-1.1-2.1-2.1-.5-.3.5-1.2 1-1.8 1-.8 0-.7-.3.2-.9.7-.5 1.1-1.3.7-1.9-1.2-2.1 3.5-2 5.4.1 1.1 1.1 2.1 1.9 2.2 1.6.2-.2.8-1.3 1.4-2.4.6-1.1 2.2-2.1 3.5-2.2 2.6-.2 6.4-.8 11.5-1.8 1.7-.3 4.4-.1 5.9.5 2.2.8 3.1.7 4.5-.5 1.7-1.5 5-1.1 5 .6 0 .5 1-.1 2.1-1.2 2-2 2.3-2 3.1-.5.5.9 1.3 1.4 1.9 1.1zM432 44c0 .5-.4 1-1 1-.5 0-1-.5-1-1 0-.6.5-1 1-1 .6 0 1 .4 1 1zm3 0c0 .5-.2 1-.4 1-.3 0-.8-.5-1.1-1-.3-.6-.1-1 .4-1 .6 0 1.1.4 1.1 1zm33 2.5c0 .5-.5.3-1-.5s-1-2-1-2.5c0-.6.5-.3 1 .5s1 1.9 1 2.5zm20-2.5c0 .5-.7 1-1.5 1s-1.5-.5-1.5-1c0-.6.7-1 1.5-1s1.5.4 1.5 1zm-59.5 1c.3.5.1 1-.4 1-.6 0-1.1-.5-1.1-1 0-.6.2-1 .4-1 .3 0 .8.4 1.1 1zm-3.5 1c0 .5-.4 1-.9 1-.6 0-1.3-.5-1.6-1-.3-.6.1-1 .9-1 .9 0 1.6.4 1.6 1zm13.3 1c.6 2.2 0 2.5-2.2 1.1-.7-.5-1-1.4-.7-2 1.1-1.7 2.3-1.3 2.9.9zm55.1-.2c.2.4.1 1.4-.4 2.2-.7 1.1-1.2 1.2-2.1.3-.6-.6-.8-1.6-.5-2.2.8-1.3 2.3-1.4 3-.3zm-19.8 4.8c-2.2 1.5-3.6 1.8-3.6.6 0-.9 4.3-3 5-2.4.3.2-.4 1-1.4 1.8zM136.5 98c.3.5.1 1-.4 1-.6 0-1.1-.5-1.1-1 0-.6.2-1 .4-1 .3 0 .8.4 1.1 1z"/><path d="M453.5 44c.3.5.8 1 1.1 1 .2 0 .4-.5.4-1 0-.6-.5-1-1.1-1-.5 0-.7.4-.4 1zM456 45.1c0 .5.5.7 1 .4.6-.3 1-.8 1-1.1 0-.2-.4-.4-1-.4-.5 0-1 .5-1 1.1zM43.5 20c-.3.5-.3 1.5.1 2.1.6 1.1 2.3-.6 2.4-2.4 0-1-1.8-.9-2.5.3zM372 20.1c0 .5.5.7 1 .4.6-.3 1-.8 1-1.1 0-.2-.4-.4-1-.4-.5 0-1 .5-1 1.1zM333 21.9c.7 1.4 1.8 1.9 3.8 1.7 1.5-.2 3.1-.4 3.6-.5 2.1-.2-3.1-3-5.7-3.1-2.4 0-2.6.2-1.7 1.9zM257.1 34.6c0 1.1.3 1.4.6.6.3-.7.2-1.6-.1-1.9-.3-.4-.6.2-.5 1.3zM55 37c0 .5.5 1 1 1 .6 0 1-.5 1-1 0-.6-.4-1-1-1-.5 0-1 .4-1 1zM18.8 40.7c.7.3 1.6.2 1.9-.1.4-.3-.2-.6-1.3-.5-1.1 0-1.4.3-.6.6zM151 43.5c0 .8.5 1.5 1 1.5.6 0 1-.7 1-1.5s-.4-1.5-1-1.5c-.5 0-1 .7-1 1.5zM200 43c0 .5.7 1 1.6 1 .8 0 1.2-.5.9-1-.3-.6-1-1-1.6-1-.5 0-.9.4-.9 1zM163 44.5c0 .8.7 1.5 1.5 1.5s1.5-.7 1.5-1.5-.7-1.5-1.5-1.5-1.5.7-1.5 1.5zM147.5 46c.3.5 1.4 1 2.3 1 1.5 0 1.5-.2.2-1-2-1.3-3.3-1.3-2.5 0zM64 47c-1.3.8-1.2 1 .3 1 .9 0 1.7-.5 1.7-1 0-1.2-.1-1.2-2 0zM142.7 47.4c-.4.9.2 1.7 1.3 2.1 2.8.9 4.4-.3 2.9-2.1-1.5-1.8-3.5-1.8-4.2 0zM99.4 48.1c-.8 1.4 1.1 3.3 2.5 2.5.6-.4 1.1-1.1 1.1-1.6 0-1.3-2.9-2-3.6-.9zM496 48c0 .5.5 1 1 1 .6 0 1-.5 1-1 0-.6-.4-1-1-1-.5 0-1 .4-1 1zM8 50.4c0 .2.7.9 1.5 1.6 1.2 1 1.5 1 1.5-.4 0-.9-.7-1.6-1.5-1.6s-1.5.2-1.5.4zM84.7 51.7c-1.2 1.1-.8 2.3.8 2.3.8 0 1.5-.7 1.5-1.5 0-1.6-1.2-2-2.3-.8zM17.5 54c-.4.6.5 1 1.9 1s2.6-.5 2.6-1c0-.6-.9-1-1.9-1-1.1 0-2.3.4-2.6 1zM26 55c0 .5.7 1 1.6 1 .8 0 1.2-.5.9-1-.3-.6-1-1-1.6-1-.5 0-.9.4-.9 1zM38.5 54.9c-.6 1 3.3 3.6 4.1 2.8.3-.2.2-1.2-.2-2.1-.7-1.8-2.9-2.2-3.9-.7zM56 54.9c0 1.1 2.6 2.2 3.4 1.4.3-.3.3-1 0-1.4-.7-1.2-3.4-1.1-3.4 0zM209.5 72c.3.5 1.7 1 3.1 1 1.3 0 2.4-.5 2.4-1 0-.6-1.4-1-3.1-1-1.7 0-2.8.4-2.4 1zM216.4 76c0 1.1.4 2 .8 2s.8-.9.8-2-.4-2-.8-2-.8.9-.8 2zM231.6 75.3c.3 1 .9 1.5 1.2 1.2.3-.3 0-1.1-.7-1.8-1-.9-1.1-.8-.5.6zM206.4 76.5c2.1 1.6 3.2 1.3 2.1-.4-.3-.6-1.4-1.1-2.3-1.1-1.5.1-1.5.2.2 1.5zM241 76c0 .6 1.2 2.4 2.8 4.1 1.5 1.7 3.5 4.5 4.4 6.2 1.1 2.1 1.7 2.6 1.8 1.4 0-.9.6-1.7 1.3-1.8.6 0 .2-.5-1-1.1-2.5-1.2-3.1-2.8-1-2.8.8 0 1.4-.6 1.4-1.3 0-.8-.6-1.4-1.4-1.4-.7 0-1.3.4-1.3.9 0 .4-1.3-.6-2.9-2.2-2.9-3.1-4.1-3.7-4.1-2zM220 78.3c0 1.4-.5 2.9-1.1 3.2-.7.5-.4 1.4.7 2.6 2.2 2.5 5.6 11.9 4.9 13.9-.6 1.9-5.3 4.1-6.1 2.9-.3-.5 0-.9.5-.9 1.6 0 1.3-2.6-.4-4-1.4-1.2-8.5-2.2-8.5-1.3 0 .2.4 1.3 1 2.3.7 1.3.6 2.1-.5 3-2 1.7-1.9 2.8.3 2.6.9 0 1.7.6 1.7 1.4 0 .8 1.1 2.1 2.4 2.7 3.1 1.7 4.6 1.7 3.2-.1-.9-1-.9-1.6-.1-2.1.6-.4 1.7 0 2.3.9 1.4 2 5.7 1.7 7.4-.4 1.1-1.3 1.3-1.1 1.3 1 .1 1.4.4 2 .6 1.3.3-.7 1.1-1 1.9-.7 1.6.7 4-3.6 5-8.9.6-3.2.5-3.6-.9-3.1-.9.3-1.6 1.1-1.6 1.6s-.8 2-1.8 3.3c-1.8 2.3-1.8 2.2-1.4-3.6.3-4.3 0-6.5-1.2-8.4-.9-1.3-1.6-3-1.6-3.7 0-.7-.9-1.9-2-2.6-1.1-.7-2-2-2-2.9 0-.9-.3-1.3-.7-1-.3.4-1.2.2-2-.4-1-.9-1.3-.6-1.3 1.4zM234.6 77.8c-.3.6-.1 1.4.5 1.7 1.4.9 2 .2 1-1.4-.6-.8-1.1-.9-1.5-.3zM209.5 80.1c-.4.6-.5 1.3-.2 1.6.7.7 2.7-.6 2.7-1.8 0-1.2-1.7-1.2-2.5.2zM233 82.9c0 1.1.5 2.3 1.1 2.7.6.3.9 1.7.6 3-.2 1.3.2 2.9.9 3.5 1.1.9 1.4.8 1.4-.5 0-.9.5-1.6 1.1-1.6.6 0 .8-.9.4-2-.6-2 .9-2.8 2-1 .8 1.2 2.5 1.3 2.5.1 0-.5-.9-1.9-2-3.2-1.6-2-2.1-2.2-2.9-.9-.9 1.2-1.1 1.2-1.7-.3-.9-2.3-3.4-2.2-3.4.2zM253 83.5c0 1.5.6 2.5 1.4 2.5.8 0 1.4-1 1.4-2.5s-.6-2.5-1.4-2.5c-.8 0-1.4 1-1.4 2.5zM211 84c0 .5.5 1 1.1 1 .5 0 .7-.5.4-1-.3-.6-.8-1-1.1-1-.2 0-.4.4-.4 1zM257.3 86.9c-1.4 2.2-.9 2.8 3.5 4.7 1.8.7 3.2 1.9 3.1 2.6-.3 2.9.2 4.9 1.1 4.3.6-.4 1 .8 1 2.9 0 1.9-.4 3.8-1 4.1-.5.3-1-.1-1-.9 0-2.3-2.1-1.9-2.7.4-.8 2.8-2.5 2-3.5-1.6-.6-2.5-1.2-3-4-2.9-2.5 0-3.3.4-3.3 1.8 0 1-.6 2.2-1.4 2.6-.8.5-1.1 1.6-.8 2.6.4.9.3 1.4-.3 1-.6-.3-1 .1-1 .9 0 1 .6 1.3 1.5 1 .8-.4 1.5-1.6 1.5-2.8 0-1.6.2-1.8.9-.7.5.7 1.4 1.1 2 .7.7-.5.8-.1.4 1-.4 1.2-.3 1.5.5 1 1.5-.9 1.6-3.6.1-3.6-.5 0-.7-.4-.4-1 .7-1.2 3.4 1 3.2 2.5-.1.5 1.3 1.1 3.1 1.3 1.7.2 3.2.8 3.2 1.3 0 .6.5.7 1 .4.6-.3 1-.2 1 .4 0 1.4 3.3 3.1 7 3.5 1.8.2 3.8 1.3 4.6 2.5 1.6 2.2 3.4 2.8 3.4 1 0-.6-.7-1.8-1.6-2.7-1.3-1.3-1.4-1.7-.3-2.1.7-.2 1.5.1 1.7.7.2.7 1.2 1.2 2.3 1.2 1.3 0 1.9.7 1.9 2.4 0 1.3-.6 2.6-1.2 2.9-.7.2-1 .8-.5 1.2.4.5 1.3 0 2.1-1 1.2-1.7 1.4-1.7 3.6.5 1.8 1.8 2.4 2 3.1.9.8-1.2 1-1.2 1.8 0 .5.8 1.6 1.1 3 .6 1.6-.5 2.1-.2 2.1 1 0 1 .7 1.5 1.8 1.3 3.9-.8 6.8 5.1 4 8.1-1.1 1.1-1 1.2.2.6.8-.4 2.4-1.5 3.4-2.4 1.8-1.5 1.9-1.5 1.2 1.3-.6 2.5-.5 2.8 1.1 2.1 2.9-1.2 9.7-1.4 11.1-.3.9.8 1.2.6 1.2-.6 0-2 1.4-2.1 3-.1.7.8 1.9 1.5 2.6 1.5.8 0 1.4 1 1.4 2.2v2.3l1.8-2.1c.9-1.1 3.2-2.7 5-3.4 3.1-1.2 3.2-1.4 1.6-3.1-1-1.1-2.3-1.9-3-1.9-1 0-1.2-.9-.7-3 .5-2.9-1-4.4-2-1.8-.2.7-.8 1-1.2.6-.4-.4.3-1.6 1.6-2.7s1.9-2 1.2-2.1c-.7 0-2.2-2.1-3.3-4.8-2-4.4-2.2-4.6-3.5-2.8-1.3 1.7-1.5 1.7-3 .2-2-2-3.5-2.1-3.5-.1 0 .9-.6 1.2-1.5.9-.8-.4-1.5-1.2-1.5-2 0-2-1.8-1.7-2.3.3-.3 1.1-.5.7-.6-1-.1-1.7-.7-2.7-1.7-2.7-.9 0-2.4-1-3.3-2.2-2.4-2.9-4.4-1.5-3.9 2.8.2 1.9.2 3.4.1 3.4-.2 0-1.7-1.3-3.3-3-1.7-1.7-3.2-2.5-3.5-1.9-.8 1.1-4.1-2.3-5-5.1-.5-1.6-7.7-8-9.1-8-.8 0 .5 9 1.8 11.3 1.3 2.5.5 3.1-2.2 1.7-1.5-.8-1.9-1.7-1.5-3.1.4-1.3.2-1.9-.9-1.9-.8 0-1.8-.9-2.1-2.1-.5-1.5-1-1.8-1.7-1.1-.8.8-.8 2.7-.1 6.2.6 2.8.6 5.3.2 5.6-.5.3-.9-.5-.9-1.8s-.4-2.9-.9-3.7c-.8-1.2-1.3-1.2-3.5.2-1.4.9-2.7 1.7-3 1.7-.3 0-.8-2.1-1.2-4.8-.3-2.6-1.3-6-2.1-7.5-.8-1.6-1.2-3.1-.9-3.4.5-.5-5.4-6.3-6.4-6.3-.3 0-1.1.9-1.7 1.9zm15.4 22.3c-.3.8-.6.5-.6-.6-.1-1.1.2-1.7.5-1.3.3.3.4 1.2.1 1.9zm36.3 3.3c0 .8-.4 1.5-1 1.5-.5 0-1-.7-1-1.5s.5-1.5 1-1.5c.6 0 1 .7 1 1.5zm7.6 12.9c1 .8 1.6 1.8 1.1 2.2-.4.4-1.6-.2-2.7-1.4-2.3-2.5-1.4-2.9 1.6-.8zM313 130c0 .5-.2 1-.4 1-.3 0-.8-.5-1.1-1-.3-.6-.1-1 .4-1 .6 0 1.1.4 1.1 1zM178 86.4c0 .2 1.3 1.8 3 3.6 1.6 1.7 3.5 5.1 4.1 7.3.6 2.3 1.5 5 2 6s.7 2.2.4 2.7c-1 1.5.3 1.2 2.5-.7 2.3-2 2.6-3.3.6-3.3-1.3 0-2.8-2.2-3-4.5-.2-2-3.9-7.9-6-9.7-2-1.6-3.6-2.3-3.6-1.4zM202.2 87.5c.4.6-.1 1.9-.9 3-1.1 1.4-1.7 1.6-2 .7-.3-.6-1.8-1.2-3.4-1.2-1.6 0-2.9-.5-2.9-1 0-.6-.4-1-.9-1-1.2 0-.8 2.4.5 4.1 1.8 2.3 3.4 7.2 3.6 11.1.2 4.2.9 4.6 3.3 2.2 1.2-1.3 1.9-1.4 2.8-.5 1.7 1.7 2.7 1.3 2.7-1 0-1.4.5-1.9 1.4-1.6 2 .8 2.8-4.3 1-7-.8-1.2-1.4-2.9-1.4-3.6 0-.8-1-2.2-2.2-3.3-1.2-1-1.9-1.4-1.6-.9zM243.2 91.1c.1 1.2.8 2.4 1.5 2.6.7.3.9-.3.6-1.7-.8-2.9-2.5-3.7-2.1-.9zM188.2 91.9c.4 1.3 1.8 1.6 1.9.4 0-.4-.5-.9-1.1-1.2-.7-.2-1.1.2-.8.8zM159.5 93c-1.2.4-2.6 1.5-3.3 2.3-1.1 1.3-.7 1.6 2.9 2.2 2.5.4 5.1 1.7 6.4 3.1 1.2 1.3 2.8 2.4 3.5 2.4 1 0 1 .3 0 1.5-.7.8-2.1 1.5-3.1 1.5-1.5 0-4.7 3.8-4.1 4.7 1.2 1.7-.5 3.2-4.2 3.7l-4.4.7.2 11.3.1 11.3 3.3-5c1.7-2.7 2.9-5.4 2.5-5.9-.3-.6-.1-.8.5-.5.9.7 9.2-8.6 9.2-10.3 0-.5-.9-.6-2-.3-1.2.3-2 0-2-.6 0-.7-.4-.9-1-.6-1.5.9-1.2-.4.3-2 2-2 6-2.2 7.4-.5 1 1.3 1.6 1.3 4.7-.4 4-2.1 4.8-3.8 4.8-10.2 0-7.1-5.5-12.9-6.9-7.4-.7 2.5-4.1 2.6-5.8.3-1.3-1.7-1.4-1.7-3.3.1-2 1.7-2 1.7-1.5-.3.6-2.3-.7-2.6-4.2-1.1z"/><path d="M190 97.4c0 1.4.5 2.8 1 3.1.6.4 1-.7 1-2.4s-.4-3.1-1-3.1c-.5 0-1 1.1-1 2.4zM250.1 96.6c0 1.1.3 1.4.6.6.3-.7.2-1.6-.1-1.9-.3-.4-.6.2-.5 1.3zM271.6 98.1c.2 2.9 1.7 4.8 3.8 4.9.5 0 .2-.7-.5-1.7-.8-.9-1.4-2.5-1.4-3.6s-.5-2.2-1.1-2.4c-.6-.2-.9 1-.8 2.8zM245 97c0 .5.5 1 1 1 .6 0 1-.5 1-1 0-.6-.4-1-1-1-.5 0-1 .4-1 1zM38.5 99c.4.6 1.1.8 1.6.5 1.4-.9 1.1-1.5-.7-1.5-.8 0-1.2.5-.9 1zM45.5 104c-.3.5-.1 1 .4 1 .6 0 1.1-.5 1.1-1 0-.6-.2-1-.4-1-.3 0-.8.4-1.1 1zM242 106c-.9.6-1 1-.3 1 .6 0 1.5-.5 1.8-1 .8-1.2.4-1.2-1.5 0zM286 125.3c0 .8.7 1.4 1.5 1.4s1.5-.6 1.5-1.4c0-.7-.7-1.3-1.5-1.3s-1.5.6-1.5 1.3zM291 138c0 .5.5 1 1 1 .6 0 1-.5 1-1 0-.6-.4-1-1-1-.5 0-1 .4-1 1zM149.1 140.6c0 1.1.3 1.4.6.6.3-.7.2-1.6-.1-1.9-.3-.4-.6.2-.5 1.3zM319.5 140c-.3.5.3 1 1.5 1s1.8-.5 1.5-1c-.3-.6-1-1-1.5-1s-1.2.4-1.5 1zM334.6 141.2c-1.6 1.9-1.6 2.1.1 3.3 1 .7 2.1 1.1 2.5.9.3-.2.1 1-.5 2.7-1 2.6-.9 3.3.4 4.2.9.7 1.9 2.4 2.3 3.9.8 3.5 2.4 3.6 3.6.3.5-1.4 1.5-2.5 2.1-2.5.7 0 0-1.1-1.5-2.5-2.4-2.2-3.7-5.3-1.7-4.1.5.3 1.2-.1 1.5-1 .9-2.4.7-5.4-.4-5.4-.5 0-1 .4-1 1 0 1.5-1.4 1.2-3.7-.9-2-1.9-2-1.9-3.7.1zM334.2 160.2c.6 1.8 2.8 2.1 2.8.4 0-.9-.7-1.6-1.6-1.6-.9 0-1.4.5-1.2 1.2zM331 162c0 .5.5 1 1 1 .6 0 1 .7 1 1.5s-.7 1.5-1.5 1.5-1.9.9-2.5 2.1c-1.1 1.9-1 2 1.1.8 1.7-.9 2.4-.9 2.7 0 .2.6.8 1.1 1.4 1.1.6 0 .8-.7.4-1.5-.3-.8.1-2 .8-2.7 1.1-1 .9-1.6-1-3-2.5-2-3.4-2.2-3.4-.8zM340.7 170.7c-.4.3-.7 1.1-.7 1.7 0 .6.5.5 1.2-.2.6-.6.9-1.4.7-1.7-.3-.3-.9-.2-1.2.2zM342 180c0 .5.5 1 1 1 .6 0 1-.5 1-1 0-.6-.4-1-1-1-.5 0-1 .4-1 1zM209.2 204.1c-1.2 1.9-1.2 2 1 1.3 1.3-.4 4.6-.9 7.3-1 7.1-.3 7.2-.3 5.5-1.4-.8-.5-4-1-7-1-4.5 0-5.8.4-6.8 2.1zM151.6 206.8c-.2.4.4 1.3 1.4 2 1.2.7 2.1.8 2.5.2.3-.6 1.7-1 3-1s2.7-.5 3-1c.4-.6-1.3-1-4.4-1-2.7 0-5.2.4-5.5.8zM182 254.9c0 1.1 3.9 4.1 5.2 4.1 1.9 0 .6-3.8-1.4-4.4-3.2-.8-3.8-.7-3.8.3zM340.5 261c-.3.5-.1 1 .4 1 .6 0 1.1-.5 1.1-1 0-.6-.2-1-.4-1-.3 0-.8.4-1.1 1zM319.3 295.5c0 2.7.2 3.8.4 2.2.2-1.5.2-3.7 0-5-.2-1.2-.4 0-.4 2.8zM318.7 314.7c-.3.5-.4 4-.2 7.8.2 4.3-.3 10.2-1.5 15.8-1.1 5-1.7 9.3-1.5 9.7.7 1.1-1.5 8-2.5 8-.5 0-.7 1.8-.4 4 .3 2.7.1 4-.7 4-.7 0-.2 1.1 1.1 2.5 1.8 2 2 2.5.8 2.5-.9 0-1.8-.5-2-1.1-.2-.7-.4.5-.5 2.5-.1 2-.5 4.2-1.1 4.9-.5.7-1.3 3.1-1.7 5.4-.4 2.4-1 4.3-1.4 4.3-1 0-3.3 12.8-2.6 14 .4.6 0 1-.8 1-1.4 0-2.7 2-2.7 4 0 .4.9 1 2.1 1.3 1.3.4 1.9 1.2 1.7 2.3-.4 2.2-2.8 3.1-2.8 1 0-.9-.4-1.6-1-1.6-.5 0-1 .1-1 .3 0 .1-.9 2.7-2 5.7-2 5.3-2.8 10.8-1 6.2.5-1.2 1.4-2.2 2-2.2.6 0 .8-.5.5-1-1-1.6.5-5 2.2-5 1.4 0 1.4.3-.2 2-1 1.1-1.4 2-.9 2 1.4-.1 5.4-3.7 5.4-4.9 0-.6.5-1.1 1.1-1.1.8 0 .8-.4 0-1.4-1-1.1-.8-1.6.5-2.4 1.5-.8 1.6-1.3.5-2.5-1-1.3-.9-1.7.8-2.6 3.2-1.8 6.1-1.3 7 1.1.7 2.1.8 2.1 2.2.2.8-1 3.1-3 5.1-4.4l3.6-2.4-2.4-2.5c-2.1-2.1-2.3-2.6-.9-3.3 1.7-1 2.1-3.8.5-3.8-.5 0-1-.5-1-1 0-.6 1.1-.8 2.5-.4 2.2.5 2.5.3 2.5-2 0-2.6-1.5-3.6-2.2-1.4-.3.8-.9.8-2.4 0-1.8-1.1-1.8-1.1.3-1.2 2.1 0 2.2-.5 2.1-5.8 0-3.1-.5-6.2-1-6.8-.9-1.2-1.4-6.7-2.3-24.9-1-19.3-1.3-22.9-2.3-25.4-.5-1.4-1.1-2-1.5-1.4zm-1.8 58c-.7 1-1.5 2-1.6 2.2-.2.2-.3-.5-.3-1.7 0-1.4.6-2.2 1.6-2.2 1.4 0 1.5.3.3 1.7zm2.1 10.7c0 1.8-4.3 3.3-4.8 1.7-.2-.6-1.1-1.2-2-1.2-.9-.1-.3-.5 1.3-.9 4.6-1.2 5.5-1.1 5.5.4zm1.8 4.3c-.9.2-1.9 1.2-2.1 2.1-.3 1.2-.5 1-.6-.6-.1-1.7.4-2.2 2.2-2.1 1.5.1 1.7.3.5.6zm-6.2 5c-1 1-1.9-.5-1-1.8.6-1.1.8-1.1 1.2 0 .2.7.1 1.5-.2 1.8zm-4.3 4c-.7.3-1.5.4-1.9.3-.4-.1-1.1.4-1.5 1.2-.7 1-.9 1-.9 0 0-1.3 4.1-3.4 5-2.4.3.2-.1.7-.7.9zm9 .3c-.7 2.6-2.2 3.5-3.6 2.1-.8-.8-.6-1.5.9-2.6 2.6-2 3.3-1.9 2.7.5zM329.6 346.5c-.9 2.6-.7 3.2.5 1.2.6-1 .9-2.1.6-2.3-.2-.3-.7.2-1.1 1.1zM195.5 349c.4.6 1.1.8 1.6.5 1.4-.9 1.1-1.5-.7-1.5-.8 0-1.2.5-.9 1zM204 348.9c0 .6.5 1.3 1 1.6.6.3 1-.1 1-.9 0-.9-.4-1.6-1-1.6-.5 0-1 .4-1 .9z"/><path d="M329.9 351.2c-.1.7-.1 1.6 0 2 0 .5-.6.8-1.4.8-1.2 0-1.4.8-1 3.1.7 3.8 1.6 13.1 1.8 18.4.1 2.2.7 4.5 1.3 5.2.8.8.7 2.7-.2 7-.7 3.2-1.3 6-1.4 6.3-.1.3-.2.9-.1 1.3.4 2.2-14.4 18.2-15.9 17.2-.6-.3-.7 0-.4.9.3.9 1 1.6 1.5 1.6s.9.5.9 1.1c0 .6-.7.9-1.5.5-1.7-.6-2.1.9-.5 1.9.6.3 1.7-.1 2.6-.9 2.1-2.2 2.7-2 1.8.6-.9 2.9-6.3 8-7.6 7.2-.5-.3-1.5.2-2.3 1.2-.7 1.1-1.7 1.5-2.2 1.1-.4-.5.1-1.6 1.3-2.5 1.6-1.4 1.9-2.3 1.3-4.6-.6-2.3-.4-3.2 1.4-4.6 1.2-1 1.8-2.2 1.4-2.6-1.1-1.1-14.9 13.3-16.9 17.7-1 1.9-3.1 5-4.9 6.9-1.8 1.9-5.7 6.2-8.7 9.5-6.2 6.7-14.2 18.5-14.2 20.9 0 .9-.3 1.6-.8 1.6-.7 0-2.1 2.7-4.1 8.2-.9 2.3-.8 2.8.4 2.8.8 0 1.5.5 1.5 1.1 0 .6-.8.8-1.9.4-2.4-.7-4 3.5-4.6 11.9-.4 5.1-.3 5.6 1.6 5.6 1.3 0 1.8-.4 1.3-1.3-.6-.9-.4-.9.7 0 1.7 1.7 17.5 1.8 18.5.1.4-.6.3-.8-.3-.5-1.3.8-7.3-.2-7.3-1.2 0-.3 1.5-.6 3.3-.6 2.4 0 3.2-.4 3.1-1.8-.1-.9.5-1.7 1.3-1.7s1.2.4.8.9c-.3.5-.1 1.2.5 1.6.6.4.8 1 .6 1.4-1 1.5 1.2 3.3 3.3 2.6 2-.6 2.8-3.6 2.2-8.2-.3-2.3 1.9-1.4 3.1 1.2.6 1.4 1.8 2.5 2.6 2.5 1 0 1.2.7.8 2.5l-.6 2.5h9.5c6.2 0 9.4-.4 9-1-.3-.6-.1-1 .4-1 .6 0 1.1.4 1.1 1 0 .5.9 1 2 1 1.5 0 2-.7 2-2.6 0-2.3.2-2.5 1.6-1.3 1.1.9 1 .3-.5-2.2-1.3-2.3-1.7-3.9-1.1-4.9.8-1.2 1-1.2 1.5.2.4 1 .4 2.2 0 2.8-.9 1.4.8 1.3 2.4-.2 1.1-1.1 1.3-1 .8.5-.5 1.4 0 1.9 2.3 2.4 1.7.3 3 .9 3 1.3 0 1.5-2.7 2.9-4.7 2.4-1.1-.3-2.4-.1-2.7.5-.5.7.9 1.1 4.3 1.1 3.9 0 5.1-.4 5.4-1.8.4-1.5.5-1.5.6 0 .1 1.4 1.7 1.6 12.1 1.7 11.3.1 12 0 12-1.9 0-1.1.4-2 .9-2s.7.9.4 2c-.5 2 0 2 21.9 2 16.5 0 22.8-.3 23.7-1.3 1.1-1 1.2-.9.6.3-.8 1.3-.7 1.3.8.1 1.1-.9 1.7-1 1.7-.2 0 .6.7 1.1 1.5 1.1 1.8 0 1.9-1.2.4-2.7-.8-.8-.7-1.3.3-1.9 1.9-1.2 3.8-1.4 3.8-.3 0 .5-.4.9-1 .9-.5 0-1 .9-1 2 0 1.9.7 2 16.3 2 18.3 0 21-.4 20.2-3-.6-2 2.1-9 3.5-9 .6 0 1-.9 1-2.1 0-1.2 1.3-3.3 2.8-4.7 1.6-1.5 3.1-3.5 3.5-4.5.3-.9 1.1-1.7 1.6-1.7.6 0 .8-.7.5-1.5-.4-1 0-1.5 1.2-1.5.9 0 1.5-.3 1.1-.6-.3-.3.9-2.1 2.7-3.8 1.8-1.8 3.8-4.7 4.5-6.4.8-1.8 2-3.2 2.7-3.2.8 0 1.4-.7 1.4-1.5 0-2.3-1.2-1.8-4.7 2-1.8 1.9-3.6 3.5-4 3.5-1.8.1-7 5.8-9.3 10.2-1.3 2.7-2.8 4.8-3.2 4.8-.5 0-.8.7-.8 1.6 0 .9-1.3 3.5-2.9 5.9-1.6 2.3-3.4 6-4.1 8.1-1.9 5.7-5 8.4-5 4.4 0-1.1.5-2 1-2 .6 0 1-.7 1-1.6 0-.9 1-3.2 2.2-5.2 2.1-3.4 2.1-3.5.2-4.9-1.8-1.5-1.8-1.5.3-.9 2.7.8 3.5-.5 3.5-5.6-.1-3.5.3-4.1 2.9-5 2.2-.8 2.7-1.3 1.9-2.3-.7-.9-.6-1.6.5-2.5.8-.7 1.5-2.5 1.5-4.1 0-1.5.5-3.1 1.1-3.4.5-.4.8-1.4.6-2.3-.4-2 2.9-9.2 4.3-9.2.6 0 1-.6 1-1.4 0-.8.3-1.6.8-1.8 1-.4 4.3-9 3.7-9.7-.9-.8-6.6 6.2-8.6 10.6-1 2.3-2.5 4.7-3.2 5.5-.7.7-3 4.6-5 8.7-2.1 4.1-4.1 7.9-4.6 8.5-.4.6-1.1 2.3-1.5 3.8-.3 1.5-1.3 3.3-2.1 4.1-.8.8-1.2 1.7-.9 1.9.2.3-.1 1.8-.8 3.4-.6 1.6-1.2 3.6-1.3 4.4-.1 2.2-2.7 7-3.7 7-.4 0-.8-.7-.8-1.5s.5-1.5 1.1-1.5c.6 0 .9-1 .8-2.3-.2-1.2.3-3.3 1-4.5.7-1.3 1-2.6.7-2.9-.3-.3.1-1.5.9-2.7.8-1.1 1.5-3.5 1.5-5.2 0-1.7.7-3.7 1.5-4.4.8-.7 1.5-2.1 1.5-3.2 0-1 .6-2.1 1.4-2.4.8-.3 1.2-1.2 1-1.9-.3-.7 0-2.4.7-3.7.7-1.3 1.2-2.6 1.1-3.1-.1-.4.5-.7 1.3-.7s1.5-.8 1.5-1.8c0-.9 1.8-3.6 4-5.8 2.9-3.1 3.8-4.9 3.7-6.9-.2-3-2.7-4.8-2.7-2 0 .9-1.3 2.1-2.9 2.6-1.6.6-3.2 1.6-3.5 2.4-.3.8-1.3 1.1-2.6.8-1.5-.4-1.9-1.1-1.5-2.2.4-.9.8-3.3 1-5.4.3-2.1.7-4.2 1-4.7.3-.5 0-1.2-.5-1.5-.8-.5-.6-1.3.6-2.6.9-1.1 1.5-2.2 1.2-2.5-.8-.7-5.8 4-5.8 5.5 0 .6-.9 1.1-2.1 1.1-1.5 0-1.9.4-1.5 1.6.5 1.2.2 1.5-.9 1-.9-.3-1.4-.2-1.1.2.3.5-.8 3.4-2.4 6.6-1.6 3.2-3.2 7.3-3.6 9.2-.3 1.9-1 3.4-1.5 3.4s-.9.6-.9 1.2c0 .7-.9 3.5-1.9 6.3-3.4 8.9-6.3 19.8-6.5 24-.1.5-.8 1.7-1.6 2.5s-1.4 2.7-1.2 4.3c.3 2.2-.1 2.7-1.9 2.7-1.6 0-1.9-.3-1.1-1.3.6-.7.7-1.9.3-2.6-.6-.9-1-.5-1.5 1.3-.5 1.9-1.3 2.6-3.1 2.6-1.5 0-2.5.6-2.5 1.4 0 .8-.7 1.6-1.5 2-.8.3-1.5 0-1.5-.6 0-1.9 3.1-4.7 4.6-4.1.9.3 1.2 0 .9-.9-.3-.8.1-2.1 1-2.8 1.7-1.4 2-5.5.6-6.5-1.4-.8-1-6.5.4-6.5 1.3 0 4.5-3.2 4.5-4.5 0-.4-.7-.2-1.5.5-.8.6-2.2 1-3.2.8-1.4-.4-1.2-.7 1.2-1.9 3.9-1.8 4.8-3.1 2.9-4.5-1.2-1-1.3-1.4-.1-2.5.8-.9 1.3-3.2 1.2-6.2-.2-4.1.1-5 1.9-5.7 1.1-.5 1.8-1 1.4-1.1-.5-.1-1.2-.3-1.8-.4-.5-.1-1.2-.3-1.5-.4-.2 0 0-1.3.6-2.9.6-1.5 1.3-6.8 1.5-11.7.3-5 .6-11 .7-13.5.1-2.5.6-4.8 1-5.1.4-.3.3-1.8-.3-3.3-.8-2.2-1.5-2.7-3.8-2.4-1.6.2-2.6.8-2.4 1.7.1.7-.2 1.9-.8 2.6-.5.6-1 2.3-.9 3.6.2 5.5-2.6 15.9-4.3 15.9-1.7 0-3.8-5-5.8-13.8-1.2-5.1-1.9-10-1.6-10.8.3-.9.3-2.1-.1-2.7-.3-.6-.7-2.7-.8-4.6-.3-5.2-.4-5.4-2-4.7-.8.3-3-.3-4.8-1.3-2.2-1.2-3.9-1.6-4.9-1-1.1.6-1.8.2-2.6-1.6-.7-1.4-1.8-2.5-2.7-2.5-1.9 0-2 1.9-.1 2.6 1 .4 1.2 1.6.9 4.5-.5 3.2-.3 3.9 1.1 3.9.9 0 1.6.4 1.6 1 0 .5-.4 1-.9 1-.6 0-1 .8-1 1.7 0 4.1-.7 8.2-1.4 8.9-.4.4-.7 1.8-.7 3.1 0 1.2-.4 2.3-1 2.3-.5 0-.7.7-.4 1.5.4.8.3 2.3-.2 3.2-.4 1-.8 2.5-.8 3.4-.1.9-.7 2.3-1.5 3.2-.7.9-1.1 2.3-.8 3.1.3.8-.2 1.7-1.1 2.1-1.6.6-1.6.7.1 1.6 1.8 1.1 2.4 5.9.7 5.9-.5 0-1-.6-1-1.4 0-.8-.7-1.7-1.6-2-1.3-.5-1.5-.1-1.2 1.9.3 1.3.1 2.6-.3 2.7-.5.2-.2 1.5.6 3 .7 1.6 1 2.8.5 2.8s-.8 1.2-.7 2.6c.1 1.5-.4 2.9-1.2 3.2-1.1.4-1.2-.3-.7-3.1.5-2.5.2-3.9-.9-5-1-1.1-1.2-1.8-.4-2.2.6-.5.4-1.1-.6-1.9-1.1-.8-1.8-3.1-2.1-6.5-.3-4.5-.1-5.1 1.1-4.1 1.1.9 1.8.9 2.9-.3 1.4-1.3 1.3-1.7-1.1-3.2l-2.7-1.8 2.3-1.8c1.5-1.2 2.1-2.5 1.7-3.5-.4-.9-.1-2.3.5-3 .8-.9.8-1.4.1-1.4-1.6 0-.9-4.1 1.1-7.1 1.5-2.2 1.7-4.2 1.3-13.1-.6-12.1-1.4-14.7-5.2-17.7-3.9-3.1-4.9-1.5-3.4 5.1.8 2.9 1.5 6.4 1.6 7.8 1 8.9 1 11 .3 11-.5 0-.9-.8-.9-1.8s-.6-2.7-1.4-3.7c-.8-1.1-1.7-5.1-2.1-8.7-.7-6.5-2.9-10.8-3.9-7.7-1 3.2-1.8 7.6-2 10.6 0 1.8-.4 3.3-.8 3.3-.5 0-.8.6-.8 1.3 0 .7-1.1 2.3-2.5 3.5-3 2.6-3.1 2.3-.5-2.5 2.4-4.6 2.5-6.3.4-6.3-.9 0-1.4.6-1.1 1.3.7 1.8-5.7 8.7-7.9 8.7-1.6 0-1.6-.1.2-1.4 1.9-1.4 1.9-1.5 0-2.2-1.2-.5-2.1-.3-2.4.4-.2.7-.8 1.2-1.3 1.2-1.4 0-1.1-2.8.5-3.7 1.1-.6.9-1.2-.7-2.8-2-2-2-2-.8.2 1.1 2.2.3 3.7-1.4 2.5-1.6-1.1-1.7-3.3-.2-5.1.8-.9 1.7-2.3 2-3.1.4-1.2.6-1.1.6.3.1 1.4.4 1.5 1.4.5 1.1-1 1.1-1.5.2-2.5-.9-.8-1.1-3-.8-6.5.3-2.9.5-6 .4-6.8-.4-5-.8-6.7-1.9-8.7-.6-1.2-1.2-3-1.2-4 0-1.1-.4-2.3-.9-2.9-.5-.5-1.1-2.4-1.3-4.3-.3-3.3-2.7-5.7-2.9-2.9zm55.1 47.3c0 .9-.9 1.5-2.1 1.5-1.8 0-1.9-.2-.9-1.5.7-.8 1.6-1.5 2.1-1.5s.9.7.9 1.5zm-50 6.5c0 .5-.2 1-.4 1-.3 0-.8-.5-1.1-1-.3-.6-.1-1 .4-1 .6 0 1.1.4 1.1 1zm-4 2.5c-.7.8-1.7 1.2-2.3.8-.6-.4-.3-.9.9-1.4 2.7-1.1 2.8-1.1 1.4.6zm17.7-.9c-.3.3-1.2.4-1.9.1-.8-.3-.5-.6.6-.6 1.1-.1 1.7.2 1.3.5zm-4.8 5.3c-1.5.5-2.2-.6-1.4-1.9.6-.9 1-.9 1.6.1.5.8.4 1.5-.2 1.8zm-22.9.1c0 .5-.2 1-.4 1-.3 0-.8-.5-1.1-1-.3-.6-.1-1 .4-1 .6 0 1.1.4 1.1 1zm5-.6c0 .2-.7.9-1.5 1.6-1.3 1.1-1.4 1-.9-.4.5-1.4 2.4-2.3 2.4-1.2zm-6.5 2.6c.3.5.2 1-.4 1-.5 0-1.3-.5-1.6-1-.3-.6-.2-1 .4-1 .5 0 1.3.4 1.6 1zm13.8 11.7c-.5 3.3-2.4 7.5-3.8 8.5-2.1 1.6-2.7.7-1.1-1.7.9-1.4 1.4-3 1.1-3.5-.6-1 2.4-5.9 3.6-6 .3 0 .4 1.2.2 2.7zm-31.6 1.8c-.4.8-1.1 1.5-1.7 1.5-.6 0-.6-.7.2-2 1.4-2.2 2.4-1.9 1.5.5zM298 433c0 .5-.4 1-1 1-.5 0-1-.5-1-1 0-.6.5-1 1-1 .6 0 1 .4 1 1zm19.5 3.1c.7 1.1-4.2 8.9-5.6 8.9-1.5 0-1-1.5 1.1-3.8 1.1-1.2 2-3 2-4.2 0-2.1 1.5-2.7 2.5-.9zm-14.5 1.5c0 .8-.4 1.2-1 .9-.5-.3-1-1-1-1.6 0-.5.5-.9 1-.9.6 0 1 .7 1 1.6zm25.9.9c-.9 3.8-1.3 4.5-2.5 4.5-.8 0-1.4-.7-1.4-1.5s.5-1.5 1-1.5c.6 0 1-.7 1-1.6 0-.9.5-1.4 1.1-1.2.6.2.9.8.8 1.3zm-18.3 11.2c-1.1 1.1-1.9-.6-1.1-2.4.8-1.7.8-1.7 1.2 0 .3 1 .2 2.1-.1 2.4zm-2.6 4.9c0 .8-.4 1.2-1 .9-.5-.3-1-1.3-1-2.1s.5-1.2 1-.9c.6.3 1 1.3 1 2.1zm75-.1c0 .8-.4 1.5-1 1.5-.5 0-1-.7-1-1.5s.5-1.5 1-1.5c.6 0 1 .7 1 1.5zm26.4 1.7c.7.5.7.8-.2.8-.8 0-1 .5-.5 1.2 1.4 2.3 1.1 3.6-.7 3.1-2.2-.6-3.1-4.4-1.7-6.9.9-1.5 1.1-1.6 1.5-.4.3.8 1 1.8 1.6 2.2zM307 459.8c0 1-.9 3.7-2 6-1.1 2.2-2 4.7-2.1 5.4 0 .7-1.3 3.5-2.8 6.3-2.3 4.2-3.1 4.9-5.2 4.7-2.7-.4-5-2.1-3.1-2.3.7-.1 1.8-.2 2.5-.3.6-.1 1.8.2 2.5.7.9.7 1.1.5.6-.7-.5-1.2-1.4-1.6-3-1.3-3 .5-3.3-1.8-.3-2.6 1.5-.4 1.9-1.1 1.5-2.4-.4-1.3.5-2.8 3.4-5.3 2.8-2.5 3.6-3.7 2.9-4.6-.7-.9-.5-1.9.8-3.3 2.2-2.6 4.3-2.7 4.3-.3zm97-.3c0 .8-.7 1.5-1.5 1.5-1.6 0-2-1.2-.8-2.3 1.1-1.2 2.3-.8 2.3.8zm-121.3 2.1c-.3.3-1.2.4-1.9.1-.8-.3-.5-.6.6-.6 1.1-.1 1.7.2 1.3.5zM397 463c0 1.1.5 2 1 2 .6 0 1-.8 1-1.7 0-.9.3-1.4.6-1 .3.3 1.7.1 3.1-.4 1.4-.5 3.1-.5 4 0 1.3.7.9 1.4-2.6 3.5-3.1 2-4.1 3.2-3.6 4.5.7 2.2-1 7.1-2.5 7.1s-1.2-1.6.6-3.5c1.6-1.5 1.6-1.9.1-5.1-.9-1.9-2.3-3.4-3.2-3.4-1.7 0-1.8-.2-.9-2.4.9-2.3 2.4-2 2.4.4zm-1.3 6.6c-.3.3-1.2.4-1.9.1-.8-.3-.5-.6.6-.6 1.1-.1 1.7.2 1.3.5zm.7 3.8c-.3.9-1 1.6-1.5 1.6-1.4 0-1.1-2.8.4-3.3 1.6-.6 1.9-.3 1.1 1.7zm-33.5 1.8c1.1 3 .4 3.6-1.4 1.2-1.7-2.3-1.9-3.4-.5-3.4.6 0 1.4 1 1.9 2.2zm4.1-1.2c0 .5-.7 1-1.6 1-.8 0-1.2-.5-.9-1 .3-.6 1-1 1.6-1 .5 0 .9.4.9 1zm-84.2 3.4c-1 .7-1.8 1.9-1.8 2.5 0 .7-.4 1-1 .6-1.3-.8-.1-3.3 1.8-3.8 2.7-.7 2.8-.7 1 .7zm119.7-.4c.3.5.1 1-.4 1-.6 0-1.1-.5-1.1-1 0-.6.2-1 .4-1 .3 0 .8.4 1.1 1zm-84.5 1c0 .5-.2 1-.4 1-.3 0-.8-.5-1.1-1-.3-.6-.1-1 .4-1 .6 0 1.1.4 1.1 1zm-32.5 4.9c-.4 1.3-1.5 2.1-3 2.1-1.3 0-3.1.3-4 .7-1.6.5-1.6.4.1-1.5 1.2-1.4 2.2-1.8 2.9-1.2 1.5 1.2 2.5.3 2.5-2.4 0-1.4.3-1.7 1.1-.9.6.6.8 2 .4 3.2zm78.5-2.3c0 .8-.4 1.2-1 .9-.5-.3-1-1-1-1.6 0-.5.5-.9 1-.9.6 0 1 .7 1 1.6zm42 3.4c0 1.6-.4 3-1 3-.5 0-1-.5-1-1 0-.6-.5-1-1.1-1-.6 0-.9.6-.6 1.3.3.7-.1 2.4-.9 3.8-1.7 3.1-1.9.3-.2-3.8 1-2.6 1.3-3.3 1.7-4.8 0-.3.8-.5 1.6-.5 1 0 1.5 1 1.5 3zm-38.4-.5c-.3.8.1 2.1.9 2.9.8.7 1.1 1.6.8 1.9-.3.3-1.2 0-1.9-.8-1.7-1.6-1.9-5.5-.3-5.5.6 0 .9.7.5 1.5zm33.4-1.1c0 .3-.4.8-1 1.1-.5.3-1 .1-1-.4 0-.6.5-1.1 1-1.1.6 0 1 .2 1 .4zm-85.5 1.6c.3.5.1 1-.4 1-.6 0-1.1-.5-1.1-1 0-.6.2-1 .4-1 .3 0 .8.4 1.1 1zm-19.5 1.9c0 1-.7 2.1-1.5 2.5-.8.3-1.5 1.5-1.5 2.6s-.6 2-1.4 2c-1.5 0-1.1-3.6.5-4.6.5-.3.9-1.4.9-2.5 0-1 .7-1.9 1.5-1.9s1.5.9 1.5 1.9zm24-1.5c0 .3-.4.8-1 1.1-.5.3-1 .1-1-.4 0-.6.5-1.1 1-1.1.6 0 1 .2 1 .4zm3 1.1c-.7.9-1.5 1.3-1.7 1.1-.7-.7.7-2.6 1.9-2.6.6 0 .6.6-.2 1.5zm14-.5c0 .5-.5 1-1.1 1-.5 0-.7-.5-.4-1 .3-.6.8-1 1.1-1 .2 0 .4.4.4 1zm4.7-.4c-.3.3-1.2.4-1.9.1-.8-.3-.5-.6.6-.6 1.1-.1 1.7.2 1.3.5zm20.9 3c-.9.9-2 1.3-2.4.9-.4-.4-.1-1 .6-1.2.6-.3 1.2-1.2 1.2-2.1 0-1.2.3-1.3 1.1-.5.9.9.7 1.6-.5 2.9zm-35.9-.4c-.3.8-.6.5-.6-.6-.1-1.1.2-1.7.5-1.3.3.3.4 1.2.1 1.9zm-44.7-.8c0 .3-.4.8-1 1.1-.5.3-1 .1-1-.4 0-.6.5-1.1 1-1.1.6 0 1 .2 1 .4zm-9 1.6c0 .5-1 1.5-2.2 2.1-1.3.7-2.6 1.6-2.9 2.2-.4.6-1.4.5-2.5-.3-1.5-.9-1.5-1-.2-.6.9.2 2.2-.2 2.8-1 .7-.8 1.9-1.4 2.7-1.4.8 0 1.1-.5.8-1-.3-.6-.1-1 .4-1 .6 0 1.1.4 1.1 1zm4.3 3.1c-.9.9-1.2.7-1-.9.1-1.4.5-1.8 1.1-1.2.7.7.6 1.4-.1 2.1zm88.7-1.6c0 .8-.4 1.5-1 1.5-.5 0-1-.7-1-1.5s.5-1.5 1-1.5c.6 0 1 .7 1 1.5zm-26 .5c0 .5-.4 1-1 1-.5 0-1-.5-1-1 0-.6.5-1 1-1 .6 0 1 .4 1 1zm-25 2.5c0 .2-.3 1-.6 1.9-1 2.5-2.1 1.9-2.6-1.3-.4-2.6-.2-2.9 1.4-2 1 .5 1.8 1.1 1.8 1.4zm10.7-1c0 .8-.4 1.5-.9 1.5-1 0-1.1-1.4-.1-2.3.9-1 1-.9 1 .8zm6.7-.1c-.3.8-1.4 1.6-2.6 1.9-1.9.5-1.9.5-.2-1.4 2-2.2 3.6-2.5 2.8-.5zm-24.4.6c0 .5-.4 1-1 1-.5 0-1-.5-1-1 0-.6.5-1 1-1 .6 0 1 .4 1 1zm-33.5.9c.3.5 0 1.3-.7 1.7-.6.4-1.4.2-1.6-.4-.2-.7-.9-.9-1.4-.6-.7.4-.8.2-.4-.4.9-1.4 3.3-1.6 4.1-.3zm93.5 1.3c0 1.8-.2 2-.9.8-.6-.8-.7-1.8-.5-2.2.9-1.4 1.4-.9 1.4 1.4zm-3-.2c0 .5-.4 1-1 1-.5 0-1-.5-1-1 0-.6.5-1 1-1 .6 0 1 .4 1 1zm25-.6c0 .3-.4.8-1 1.1-.5.3-1 .1-1-.4 0-.6.5-1.1 1-1.1.6 0 1 .2 1 .4zm-81 1.4c0 1.3-4.1 4.4-4.8 3.6-.4-.4-.1-.9.6-1.1.6-.3 1.2-1.1 1.2-1.9 0-.8.7-1.4 1.5-1.4s1.5.3 1.5.8zm-45.4 2.4l1.9 2.3-2.5-2c-1.4-1.1-2.7-2.1-2.9-2.2-.2-.2 0-.3.6-.3.5 0 1.8 1 2.9 2.2zm5.4-1.2c0 .5-.2 1-.4 1-.3 0-.8-.5-1.1-1-.3-.6-.1-1 .4-1 .6 0 1.1.4 1.1 1zm161.8.2c-.2.6-1 1.4-1.6 1.6-.7.2-1-.2-.6-1.2.7-1.8 2.8-2.2 2.2-.4zM298 498c0 .5-.4 1-.9 1-.6 0-1.3-.5-1.6-1-.3-.6.1-1 .9-1 .9 0 1.6.4 1.6 1zm39 0c0 .5-.4 1-1 1-.5 0-1-.5-1-1 0-.6.5-1 1-1 .6 0 1 .4 1 1zm8-.6c0 .3-.4.8-1 1.1-.5.3-1 .1-1-.4 0-.6.5-1.1 1-1.1.6 0 1 .2 1 .4zM172.5 353.2c-.8 2.7-1.4 16.7-.8 20.2.3 2.1 1.8 4.9 3.3 6.5 2.6 2.5 4.6 6.7 4.2 8.3-.1.5.3.8.8.8.6 0 1-.7 1-1.5s.5-1.5 1-1.5c.7 0 .7.7 0 2.1-1 1.8-.6 2.7 3.2 6.6 2.4 2.5 4.9 5 5.6 5.6.7.7 3.3 3.2 5.7 5.7 4.3 4.3 6.2 5 4.9 1.6-.3-.9-1-1.3-1.5-1-.5.3-.9-.1-.9-1 0-.8-.6-1.7-1.2-1.9-1-.4-1-.6 0-.6 1.4-.1.6-5.2-1.1-6.2-.5-.4-1.2-2.9-1.4-5.5-.2-2.7-.7-5.1-1.1-5.4-.4-.3-.8-2.6-.8-5.2-.1-2.6-.6-5.3-1.1-6-.6-.7-2.1-5.1-3.4-9.8-1.2-4.7-2.9-9.2-3.8-10.2-2.1-2.1-12-3.4-12.6-1.6zM195.8 356.7c.7.3 1.6.2 1.9-.1.4-.3-.2-.6-1.3-.5-1.1 0-1.4.3-.6.6zM158.4 382.5c-1.2 1.6-2.6 4.6-3.2 6.5-2.8 8.8-5.2 17.5-5.2 18.7 0 .7-.5 1.3-1.1 1.3-.5 0-.7.5-.4 1.1.4.5 0 1.8-.8 2.7-1.8 2.1-3.7 7.7-3.7 10.8 0 1.3-.5 2.4-1.1 2.4-.5 0-.8.4-.5.9.3.5-.3 1.1-1.4 1.4-2.3.6-2.7 2.7-.5 2.7.8 0 1.5-.5 1.5-1 0-.6.8-1 1.8-1 1.6.1 1.6.1-.1 1.1-.9.6-1.5 1.5-1.1 2 .4.7-.3.9-1.8.7-1.4-.1-3.2.3-4.1 1-1.3 1.1-1.5.7-1.9-2.6-.2-2.9 0-3.8.9-3.5.9.3 1.3-.4 1.3-2.1 0-1.4.4-3.4.9-4.4 1.6-3.2 6.1-18.7 6.1-21 0-1.2.4-2.2.8-2.2s1.4-2.1 2.1-4.8c.8-2.6 1.6-5.3 1.9-6 .2-.7-.4-1.2-1.6-1.2-2.6 0-9.6 7.9-12.9 14.5-3.3 6.4-5.4 9-7.3 9-2.3 0-2.3-3.8 0-6.2 1.1-1.2 2-2.7 2-3.3 0-1.9-1.8-1-4.4 2.1-1.5 1.7-3.3 2.9-4.3 2.7-2.2-.4-6.3 3.9-8.9 9.1-2.1 4.4-2.8 4.8-4.9 2.8-1.1-1.2-1.1-1.9.2-4.6 1.3-2.6 1.4-3.4.3-4.4-1-.9-1.1-.9-.5.1.4.9 0 1.5-1.5 1.9-1.3.4-1.9 1.1-1.6 2 .6 1.5-1.5 4.3-3.3 4.3-.6 0-1.1.5-1.1 1.1 0 .7-.8 1.8-1.7 2.5-1.7 1.3-1.7 1.3 0 1.4 2.5 0 2.1 2.8-.5 3.2-2 .3-2.1.4-.5 2 2.8 2.7 2.2 4.7-1.3 4.3-1.6-.2-3 0-3 .4 0 .5-.7 1.2-1.6 1.5-1.4.5-1.6.1-1.1-2.4.5-2.3.3-3-.9-3s-1.5.7-1.2 2.5c.4 1.7.1 2.5-.8 2.5-.8 0-1.4.4-1.4 1 0 .5-.5 1-1.2 1-.6 0-.4-.8.6-1.9 1-1.1 1.6-2.6 1.3-3.3-.4-.8-.6-.7-.6.4-.1 1-.7 1.9-1.3 2-.7 0-1.8.2-2.3.2-1.6.2-6.1 4.6-4.7 4.6.6 0 1.8-1 2.6-2.2 1.6-2.2 1.6-2.1 1.6 1.8 0 3.8-.2 4.1-3.7 5-2 .5-3.9 1.5-4.1 2.3-.3.8 0 1.1.7.7.7-.5 1.1.2 1.1 1.8 0 1.9-.4 2.4-1.6 1.9-1.4-.5-1.5-.3-.6 1.4 1.1 2 1.1 4 .1 5.8-.4.5-.9 2.6-1.3 4.6-.3 2-1.6 4.5-2.7 5.5-2 1.8-2 1.9-.2 3.2 1.3 1 1.4 1.6.6 1.9-.7.3-1.3 1.1-1.3 1.9 0 .8-.6 1.7-1.3 2-.8.3-1.4 2.1-1.5 4.2-.1 2.3-.8 4.2-1.9 5-1.5 1-1.5 1.4-.4 2.1 1.1.7 1.1.9 0 1.4-1.1.4-.9.8.5 2 1.9 1.4 1.9 1.6.3 3.1-.9 1-1.7 2.6-1.7 3.6s-.4 2.2-1 2.5c-2.3 1.4-.7 2.5 4 2.5 3.2 0 5-.4 5-1.2 0-.9.3-.9 1.2 0 1.6 1.6 7.8 1.5 9.2-.2.6-.7 2.4-1.7 3.9-2 2.5-.6 2.8-.5 2.2 1.4-.6 2-.4 2 31.7 2 23.6 0 32.7-.3 33.6-1.2.9-.9 1.8-.8 3.7.2 2.2 1.2 2.8 1.2 3.4.1.6-.9 1.1-1 1.5-.2.4.6 3.4 1.1 6.6 1.1 5 0 6-.3 6.5-2 .4-1.2.2-2.7-.4-3.4-.8-1-.7-1.7.4-2.6 2.7-2.2 1.6-3.2-1.3-1.1l-2.8 1.9.1-3.9c0-4.2-.3-4.1 5.6-2.6.4.1.6-.3.6-.8-.1-.6-1-.9-2-.8-1.5.2-1.5 0-.5-1.7 1.4-2.1 3.4-2.8 2.2-.8-.4.7.1.5 1.2-.4 1.8-1.7 1.8-1.8-.1-3.3-1.3-.9-1.5-1.4-.6-1.5.9 0 1.1-.8.7-2.5-.5-2.1-.2-2.7 1.9-3.5 3.5-1.3 3.5-1.3 3.5.9 0 1.1.4 2.2 1 2.6.5.3.7 1.2.4 2-.4.8.1 1.7.9 2.1 1 .3 1.4 1.6 1.3 3.6-.2 2 .4 3.7 1.5 4.6 1.6 1.4 1.6 1.7.2 3.9-1.2 1.8-1.2 2.3-.2 2.3.9 0 1 .3.2 1.1-1.7 1.7-.3 5.1 1.8 4.6 1-.3 1.9-.1 2.1.5.2.5 3.9.7 8.3.5 5.6-.2 7.3-.6 5.8-1.1-1.3-.5-2.3-1.2-2.3-1.7v-1.7c0-.4 1.1-.7 2.5-.7 1.4-.1 2.5.4 2.5 1.1 0 1.9 2.7 3.7 3.5 2.4.4-.7-.3-1.8-1.4-2.7-1.5-1-2-2.1-1.5-3.5.5-1.6.3-1.9-1.4-1.4-1 .4-2.7.3-3.7 0-1.6-.6-1.5-.8.5-1.9 2.2-1.2 2.2-1.2-1.4-1.9-2.8-.5-3.6-1.1-3.2-2.2.3-.9.6-1.8.6-2 0-.3.5-.2 1 .1.6.3 1 .1 1-.4 0-1.4-1.1-1.3-3.3.3-1 .8-1.5 2-1.1 3 .3.9.2 1.6-.4 1.6-1.4 0-2.5-3.4-1.3-3.8.6-.2 1.1-1 1.1-1.7 0-1.8 5.8-2.9 9.9-2 2.6.5 3 .4 2.5-.9-.4-1.1-2-1.6-4.8-1.7-2.2-.1-3.1-.4-1.8-.6 1.2-.2 2.2-1.1 2.2-1.9 0-.8-1-1.4-2.2-1.4-2.3-.1-2.3-.1.2-2.3 2.3-2 2.5-2.7 1.8-6.2-1-4.7-1.4-5.1-3.1-3.7-1 .9-1.4.8-1.4-.3 0-.8.4-1.5.9-1.5.4 0 .8-.7.8-1.6 0-1.4.2-1.4 1.6-.3 2.1 1.7 5.5 3.7 7.7 4.5 3 1.1 1.8 2.4-1.8 1.9-1.9-.2-3.5 0-3.5.5 0 .6.4 1 .9 1s.8 1.1.7 2.5c0 1.4-.4 2.5-.8 2.5-.5 0-.8.5-.8 1.1 0 .8.4.8 1.4-.1.8-.6 1.2-1.8.9-2.6-.3-.9.5-1.7 2.2-2.4 3.2-1.2 4.5-.6 4.5 2.1 0 1 .6 1.9 1.3 1.9.8 0 2 1.2 2.8 2.6 1.2 2.3 1.1 2.7-.4 3.9-2.5 1.8-2.1 2.3 1.8 3.1 2.6.5 3.6 1.2 4 3 .3 1.3.7 3.5 1 4.9 1 4.9-5.1 5.5-8.8.8-1-1.3-2.6-2.7-3.6-3.3-1.5-.8-1.8-.4-1.8 2.1 0 2.7.3 3 2.5 2.4 2-.5 2.4-.3 2 1.2-.4 1.4.2 1.8 2.6 2 6 .4 7.4 1.1 7.4 3.8 0 1.3-.3 2.3-.7 2.1-.3-.2-1.5 0-2.6.4s3.2.8 9.8.9c11.5.1 11.7.1 11.8-2.1.1-1.3.3-3.4.5-4.8.4-2.7-1.5-14-2.4-14-.3 0-1.1.8-1.9 1.7-1.3 1.7-1.3 1.6-.4-.3 1-2.2.9-5.6-.5-8.9-1.4-3.4-9.5-14.5-15.1-20.5-3.5-3.8-10.3-12.7-10.3-13.5 0-.5-5.7-8.9-9.2-13.5-1.1-1.4-3.1-4.4-4.6-6.7-4.1-6.3-19.5-22.3-21.4-22.3-1.2 0-1.8.8-1.8 2.4 0 2 .4 2.3 2.3 2 1.2-.2 1.6-.2 1 .2-2 .9-1.5 5.9.6 7.8 1.1 1 1.8 2.6 1.6 3.7-.3 1.6.7 2.5 1.8 1.6.2-.1 1.1.6 2.1 1.6 1 .9 2.2 1.5 2.7 1.1 1.4-.8 6.9 1.9 6.9 3.4 0 .7.4 1.1.9.8 1.3-.8 8.3 7.9 11 13.6 1.3 2.7 2.7 5 3.2 5.4 1.7 1 .9 3.5-1.3 4.3-1.7.6-2.6.4-3.5-.8-.9-1.3-1.4-1.4-2.4-.4-1.9 1.9-3.1 1.6-2.5-.5.4-1-.1-2.7-.9-3.8-1.9-2.5-1.9-5 .1-5.8.8-.3 1.2-1.1.8-1.7-.5-.9-1-.8-1.8.3-1.7 2.2-4.7 3-6.3 1.7-1-.9-1.7-.9-2.5-.1-1.3 1.3-.2 3.2 2 3.2.9.1 2.7.9 4 2 2.2 1.8 2.2 2 .7 4.9-1.8 3.5-4.5 3.2-4.5-.5 0-2.8-1.6-3.2-2.4-.7-.2 1-.2 0 .1-2.1.4-2.7.2-3.7-.5-3.2-1.4.9-5.5-1.2-4.7-2.4.3-.5.1-1.1-.5-1.5-.5-.3-1-.1-1 .4 0 2.4-3.6.9-4.8-1.9-.8-1.6-2.7-4.2-4.3-5.7-1.6-1.6-2.9-3.3-2.9-3.9 0-.7-.9-1.4-2-1.7-1.6-.4-2 0-2 1.9 0 1.3.6 2.4 1.3 2.4.8 0 1.3 1.6 1.5 4.6.1 2.6.5 5.2 1 5.8.4.6 1.6 4.7 2.6 9.1 1 4.4 2.4 9.2 3.2 10.7.8 1.4 1.4 4.2 1.4 6.1 0 2 .5 3.9 1 4.2.6.3 1 1.4 1 2.4 0 1.2-.7 1.7-2.2 1.5-1.3-.1-2.6-.3-3-.3-.5-.1-.8-1-.8-2.1s-.6-2-1.2-2c-.8-.1-.5-.6.6-1.5 1.7-1.3 1.7-1.5-.7-4.7-1.3-1.8-2.2-3.9-2-4.6.3-.7 0-1.9-.6-2.6-1-1.2-2-6-2.5-11.1 0-1.1-.5-2.6-.9-3.3-.5-.6-.5-1.7-.2-2.2.4-.6.1-1.8-.6-2.7-.9-.9-1.4-4.3-1.4-8.7 0-6.9-1.7-10.8-2.3-5.4-.2 1.6-.9 2.8-1.8 2.8-1.8 0-1.8-.3.6-4.5s2.6-10.2.5-13.2c-.8-1.2-1.3-2.7-1-3.5.2-.7.1-5.1-.3-9.8l-.7-8.5-2.1 3zm-50.4 40c0 1.8-.4 2.3-1.5 1.9-.8-.4-1.5-1-1.5-1.6 0-.5.5-.6 1-.3.6.3 1-.1 1-.9 0-.9.2-1.6.5-1.6s.5 1.1.5 2.5zm5-.4c0 .5-.4.9-1 .9-.5 0-1-.7-1-1.6 0-.8.5-1.2 1-.9.6.3 1 1 1 1.6zm-3.6 5.5c.5 1.3.4 1.4-.7.6-.8-.7-1.7-.9-2-.5-.4.3-.7.1-.7-.5 0-1.8 2.7-1.4 3.4.4zm2 3.9c.3.9 0 1.5-.9 1.5-.8 0-1.5-.7-1.5-1.5s.4-1.5.9-1.5 1.1.7 1.5 1.5zM94 436c0 .5-.4 1-1 1-.5 0-1-.5-1-1 0-.6.5-1 1-1 .6 0 1 .4 1 1zm40 0c0 .5-.2 1-.4 1-.3 0-.8-.5-1.1-1-.3-.6-.1-1 .4-1 .6 0 1.1.4 1.1 1zm-.5 5.8c-.8.9-2.5-2-1.8-3.1.3-.5 1-.2 1.5.7.6 1 .7 2 .3 2.4zm7.5-1.8c0 .5-.4 1-1 1-.5 0-1-.5-1-1 0-.6.5-1 1-1 .6 0 1 .4 1 1zm-32.4 4.7c-1 1-1.9-.5-1-1.8.6-1.1.8-1.1 1.2 0 .2.7.1 1.5-.2 1.8zM83 443.4c0 .3-.4.8-1 1.1-.5.3-1 .1-1-.4 0-.6.5-1.1 1-1.1.6 0 1 .2 1 .4zm49 2.7c0 .6-.4.7-1 .4-.5-.3-1-1.1-1-1.6 0-.6.5-.7 1-.4.6.3 1 1.1 1 1.6zm4.6-1.3c1.3.8 3.4 4.6 3.4 6.1 0 .6-.7.8-1.5.5-.8-.4-1.5-1.5-1.5-2.5 0-1.1-.7-2.2-1.5-2.5-.8-.4-1.5-1-1.5-1.5 0-1.1 1.1-1.1 2.6-.1zm63.5 2.9c3.2 4.1 4 6.3 2.5 6.9-1.7.7-5.6-1.2-5.6-2.7 0-.6.5-.7 1-.4.6.3 1-.1 1-1s-.9-1.9-2-2.2c-1.1-.3-1.7-.9-1.4-1.4.9-1.4 3-1 4.5.8zM131 450c0 .5-.4 1-1 1-.5 0-1-.5-1-1 0-.6.5-1 1-1 .6 0 1 .4 1 1zm4.5 0c.3.5.1 1-.4 1-.6 0-1.1-.5-1.1-1 0-.6.2-1 .4-1 .3 0 .8.4 1.1 1zm-33.3 4.3c-2.1 2.2-2.1 2.5-.6 5.5 1.8 3.7 2.9 4 3.7 1.1.3-1.2 1-1.8 1.6-1.5.5.4 1.2.2 1.6-.4.9-1.5 3.5-1.2 3.5.4 0 .8.6 1.6 1.3 1.9.8.3.6.7-.7 1.2-1 .5-2.6.3-3.6-.3-1.5-.9-1.9-.6-2.4 1.9-.4 2-1.2 2.9-2.4 2.9-2.7 0-7.5 4.7-6.8 6.6.4 1.2.2 1.5-.9 1-.8-.3-1.5-.4-1.5-.2 0 .3-.3 1.3-.6 2.3-.5 1.5-.4 1.5.5.3.7-1 1.1-1.1 1.1-.3 0 .7.7 1 1.5.7.8-.4 1.5-1.2 1.5-2s.5-1.4 1-1.4c.6 0 1 1.1 1 2.5 0 1.5-.6 2.5-1.4 2.5-1.2 0-1.2.6-.3 3.5.8 2.9.7 3.8-.6 5.3-2 2.2-2.2 4.8-.4 5.5.7.4.6.6-.4.6-.9.1-1.9-.6-2.3-1.4-.3-.8-1.7-1.5-3.1-1.5-1.7 0-2.5-.6-2.6-1.8 0-1.3-.2-1.3-.9.4-1.2 3-2.6 3.6-4 1.9-1-1.2-.9-1.6.4-2.1 2-.8 2.1-3.4.2-3.4-1.3 0-2.6 2.6-3.1 6.4-.3 2-5.4 6.7-6.9 6.2-.9-.2-2.9-5.6-2.1-5.6.2 0 1-.3 1.9-.6 1.3-.5 1.5-.1.9 2.7-.6 3-.5 3.2.8 1.9.8-.8 1.5-2.5 1.5-3.8 0-1.7-.6-2.2-2.6-2.3-2.1-.2-2.2-.2-.4-.6 1.6-.3 2-1 1.6-2.8-.3-1.6.4-3.2 2.2-5 1.4-1.4 2.6-3.5 2.6-4.5 0-1.1.4-2 .9-2s1.7-.7 2.5-1.6c1.5-1.4 1.6-1.4 1.6.2 0 1.4.3 1.4 1.5.4 1.3-1.1 1.3-1.5.3-2.1-1-.7-1-.9.1-.9.8 0 1.1-.7.8-1.9-.3-1.2.1-2.2.9-2.5.8-.3 1.4-1.4 1.4-2.5s1.1-3.2 2.6-4.6c1.4-1.4 2.2-3 1.8-3.7-.4-.6-.3-.8.4-.4.6.3 1.4 0 1.9-.7.7-1.2 4.1-3.6 5.2-3.7.3 0-.5 1-1.7 2.3zm24.8-.3c0 .5-.2 1-.4 1-.3 0-.8-.5-1.1-1-.3-.6-.1-1 .4-1 .6 0 1.1.4 1.1 1zm32 8.5c0 .8-.4 1.5-.9 1.5s-1.1-.7-1.5-1.5c-.3-.9 0-1.5.9-1.5.8 0 1.5.7 1.5 1.5zm8 .5c0 .5-.5 1-1.1 1-.5 0-.7-.5-.4-1 .3-.6.8-1 1.1-1 .2 0 .4.4.4 1zm-29 3.9c0 .5-.9 1.1-2 1.4-2.2.6-2.9-1.8-.7-2.6 1.4-.5 2.7.1 2.7 1.2zm18 .1c0 .5-.4 1-1 1-.5 0-1-.5-1-1 0-.6.5-1 1-1 .6 0 1 .4 1 1zm46 .4c0 .7-.8 1.6-1.7 1.9-1 .2-2.6.8-3.5 1.2-1.4.5-1.8.2-1.8-1.4 0-1.4.5-1.9 1.4-1.5.8.3 2.3.1 3.3-.5 2.3-1.3 2.3-1.3 2.3.3zm-28 1.2c0 1.4-.3 1.4-1.5.4-.8-.7-1.5-1.4-1.5-1.6 0-.2.7-.4 1.5-.4s1.5.7 1.5 1.6zm-8.5.3c.3.5.1 1.2-.5 1.6-.5.3-1-.1-1-.9 0-1.8.6-2.1 1.5-.7zM158 470c0 .5-.4 1-1 1-.5 0-1-.5-1-1 0-.6.5-1 1-1 .6 0 1 .4 1 1zm-20.5 1.2c.2.2-.3 1.2-1.1 2.2-1.4 2-1.4 2-2.9 0-.8-1-1.5-2.2-1.5-2.7 0-.7 4.8-.2 5.5.5zM174 474c0 1.6-.4 3-1 3-1.1 0-1.4-4.3-.3-5.3 1.1-1.2 1.3-.8 1.3 2.3zm-8-1.6c0 .3-.4.8-1 1.1-.5.3-1 .1-1-.4 0-.6.5-1.1 1-1.1.6 0 1 .2 1 .4zm64 1.1c0 .8-.4 1.5-1 1.5-.5 0-.7-.7-.4-1.5.4-.8.8-1.5 1-1.5.2 0 .4.7.4 1.5zm-67.4 2.3c-.3.5-1.7 1.2-3 1.4-2.2.4-2.4.2-1.6-1.3.6-.9 1.5-1.9 2.2-2.2 1.6-.6 3.2.8 2.4 2.1zm61.1.7c-.4.8-1.1 1.5-1.7 1.5-.6 0-.6-.7.2-2 1.4-2.2 2.4-1.9 1.5.5zM170 476c0 .5-.5 1-1.1 1-.5 0-.7-.5-.4-1 .3-.6.8-1 1.1-1 .2 0 .4.4.4 1zm-5.4 3.7c-1 1-1.9-.5-1-1.8.6-1.1.8-1.1 1.2 0 .2.7.1 1.5-.2 1.8zm7.8-.2c-.7 1.8-3 2-4 .3-.4-.6-.3-.8.4-.4.6.3 1.3.2 1.7-.4 1-1.6 2.5-1.2 1.9.5zM135 485c.8.5 1.1 1 .5 1-.5 0-1.7-.5-2.5-1s-1-1-.5-1c.6 0 1.7.5 2.5 1zm25.5 0c-.3.5-1.1 1-1.6 1-.6 0-.7-.5-.4-1 .3-.6 1.1-1 1.6-1 .6 0 .7.4.4 1zm4.7 2.2c-.9.9-1.5.9-2.4 0-.9-.9-.7-1.2 1.2-1.2s2.1.3 1.2 1.2zm69.8-.8c0 .2-.7.7-1.6 1-.8.3-1.2.2-.9-.4.6-1 2.5-1.4 2.5-.6zM133 490c0 1.6-.4 3-1 3-.5 0-1-1.4-1-3 0-1.7.5-3 1-3 .6 0 1 1.3 1 3zm103.8.8c.2.7-.6 1.2-2 1.2-1.8 0-2 .2-.8 1 1.3.8 1.3 1-.2 1-2.6 0-6.8-1.8-6.8-3 0-1.6 3-1.2 3.7.5.5 1.3.8 1.2 2-.5 1.5-2.2 3.4-2.3 4.1-.2zm-72.3.2c.3.5.1 1-.6 1s-2.3.9-3.5 2.1c-1.3 1.2-2.4 1.6-2.8 1-.4-.5.3-1.5 1.4-2.1 1.1-.6 1.8-1.5 1.5-2.1-.4-.5.3-.9 1.4-.9 1.1 0 2.3.4 2.6 1zm34.5 1c0 .5-.4 1-1 1-.5 0-1-.5-1-1 0-.6.5-1 1-1 .6 0 1 .4 1 1zm-29.6 5.1c-2.1 2.4-2.9 1.8-1.4-1 .6-1.2 1.6-1.9 2.1-1.5.6.4.4 1.3-.7 2.5zm-25.9.9c.3.5.1 1-.4 1-.6 0-1.1-.5-1.1-1 0-.6.2-1 .4-1 .3 0 .8.4 1.1 1z"/><path d="M101 464.6c0 .8.5 1.2 1 .9.6-.4.8-1.1.5-1.6-.9-1.4-1.5-1.1-1.5.7zM90 477.6c0 .4 1 2.2 2.1 4.1 1.6 2.6 2.4 3.1 3 2.1 1.3-2 1.1-2.8-.8-2.8-.9 0-1.3-.3-1-.7.4-.3.2-1.2-.4-2-1.2-1.3-2.9-1.8-2.9-.7zM87.4 481.5c.3.8.1 1.5-.4 1.5-.6 0-1 .5-1 1.1 0 .6.9.8 2.1.4 1.5-.5 1.9-.4 1.5.4-.5.7.1 1.1 1.5 1.1 2.1 0 2.1-.1.6-1.8-1-1-1.7-2.4-1.7-3 0-.7-.7-1.2-1.6-1.2-1 0-1.4.6-1 1.5zM176.6 392.3c.3 1 .9 1.5 1.2 1.2.3-.3 0-1.1-.7-1.8-1-.9-1.1-.8-.5.6zM343.3 394.1c-1.6 1.6-1.7 4.9-.3 4.9 1.3 0 2.3-2.4 1.8-4.5-.2-1.3-.5-1.4-1.5-.4zM128 397.1c0 .5.5.7 1 .4.6-.3 1-.8 1-1.1 0-.2-.4-.4-1-.4-.5 0-1 .5-1 1.1zM311 402.4c0 .8-.3 2.2-.7 3.1-.5 1.5-.3 1.6 1.5.6 2.5-1.3 3-5.1.7-5.1-.8 0-1.5.6-1.5 1.4zM181.7 416.4c-.3.8-1.8 1.6-3.4 1.8l-2.8.4 2.8 1.2c2.8 1.2 2.9 3.2.1 3.2-.9 0-1.4.6-1.1 1.2.2.7 1.1 1.1 1.8.9 3.1-.9 6.4-.6 6.2.6-.2.7.3 1.3 1 1.3s1.9-.6 2.6-1.3c1.1-1 1.3-.8.8 1-.3 1.5-.1 2.3.8 2.3.7 0 2.7.3 4.4.6 2.6.5 3 .4 2.5-.9-.3-.8-1.5-1.8-2.7-2.1-2.5-.6-7.7-4.9-7.7-6.3 0-.5-1.1-2-2.4-3.2-1.9-1.8-2.4-1.9-2.9-.7zM311 421.1c0 .5.5.7 1 .4.6-.3 1-.8 1-1.1 0-.2-.4-.4-1-.4-.5 0-1 .5-1 1.1zM88.6 422.8c-1.3 1.2-.4 1.9 2.4 1.9 2.1 0 2.7-.4 2-1.1-1.2-1.2-3.6-1.6-4.4-.8zM62 424.5c0 .8.2 1.5.4 1.5s.6-.7 1-1.5c.3-.8.1-1.5-.4-1.5-.6 0-1 .7-1 1.5zM428 425.2c0 .6-.6 1.9-1.4 2.7-2.5 2.8-2.9 6.6-1 8.2 1 .8 1.5.9 1.1.3-.4-.7 0-1.7.8-2.4s1.2-1.6.9-2.1c-.2-.5.2-2.1 1-3.7 1.5-2.8 1.3-4.2-.6-4.2-.4 0-.8.5-.8 1.2zM56 426.4c0 .9.7 1.2 1.9.9 1-.2 2.5.3 3.5 1.2.9.9 1.6 1.2 1.6.6 0-.9-5-4.1-6.5-4.1-.3 0-.5.6-.5 1.4zM80 428c0 .5.5 1 1 1 .6 0 1-.5 1-1 0-.6-.4-1-1-1-.5 0-1 .4-1 1zM181.9 428.3c.7 1 1.8 1.7 2.4 1.7.5 0 1.6.8 2.3 1.7 1 1.4 1.5 1.5 2.4.6 1.6-1.5.4-3.3-2.1-3.3-1.1 0-3-.5-4.2-1.2-2-1-2.1-1-.8.5zM285 431.9c-.8.5-4.4 1.8-8 2.9-15.7 4.9-37.2 6.1-49.7 2.8-7.9-2.1-9.5-1.8-6.6 1.1 13.1 13.7 20.6 23.5 24.8 32.5 2.4 5.3 3.4 6.5 4.3 5.6.9-.9 1.5-.9 2.4 0 1.8 1.8 2.5 1.5 3.3-1.5 1.2-5 5.4-12.7 9.5-17.8 6.2-7.5 6.2-7.5 13.3-14.3 7.7-7.3 11.5-12.2 9.5-12.2-.7 0-2 .5-2.8.9zm-24.8 12.3c-.8.8-.9 1.5 0 2.5.6.7.8 1.6.4 2-.8.9-1.3.2-2.1-3-.6-2.2-.4-2.7 1.1-2.7 1.4 0 1.5.3.6 1.2zm-8.7.8c.3.5.1 1-.4 1-.6 0-1.1-.5-1.1-1 0-.6.2-1 .4-1 .3 0 .8.4 1.1 1zm-4.5 1c1.1.7.3 1-3 .9-3.4 0-4-.2-2.5-.9 2.7-1.2 3.7-1.2 5.5 0zm5.6 3c2.1.8 2.9.8 3.6-.2.6-1 .8-.8.8.4 0 1 .5 1.8 1 1.8.6 0 1 .4 1 1 0 2-5.5 1-8.4-1.5-3.1-2.7-2.4-3.1 2-1.5zm-7.1.9c.3.5-.8.9-2.5.9-1.6-.1-3-.5-3-1 0-1.1 4.7-1 5.5.1zm5.5 3.5c0 1.1-1.9 1.5-2.5.6-.3-.5.1-1 .9-1 .9 0 1.6.2 1.6.4zM37.1 433.6c0 1.1.3 1.4.6.6.3-.7.2-1.6-.1-1.9-.3-.4-.6.2-.5 1.3zM454.9 432.2c-.6 2.1-.5 3.9.2 4.4.5.3.9-.6.9-2 0-2.1-.7-3.6-1.1-2.4zM35 437.7c0 1.1.5 4.5 1.1 7.4.6 3 1.2 6.5 1.4 7.9.2 1.4.9 3.7 1.4 5 .9 2.3 1 2.2 1.1-1.5.1-2.2.3-5.5.5-7.4.2-2.2-.6-5-2.1-7.9-3-5.7-3.4-6.1-3.4-3.5zM367.5 437c.3.5.8 1 1.1 1 .2 0 .4-.5.4-1 0-.6-.5-1-1.1-1-.5 0-.7.4-.4 1zM423.6 438.3c.3 1 .9 1.5 1.2 1.2.3-.3 0-1.1-.7-1.8-1-.9-1.1-.8-.5.6zM26 439c0 .5.4 1 .9 1 .6 0 1.3-.5 1.6-1 .3-.6-.1-1-.9-1-.9 0-1.6.4-1.6 1zM55 441.6c0 .8.5 1.2 1 .9.6-.3 1-1 1-1.6 0-.5-.4-.9-1-.9-.5 0-1 .7-1 1.6zM59 447c1.3 2.4 1.3 4-.1 1.7-1.1-1.9-2.9-2.3-2.9-.6 0 .6.7 1.7 1.5 2.5 1.1 1.1 1.2 2.1.5 4-1.8 4.7-1.2 9 1.3 10.1 1.9.9 2.6.8 3.5-.8 1-1.6.9-1.9-.3-1.9-2.1 0-1.9-1.7.5-3 2.5-1.3 2.6-3.6.3-4.9-1.1-.6-1.3-1.1-.5-1.1s1-.5.5-1.2c-.4-.7-.7-2.1-.8-3.2 0-1-1-2.2-2.3-2.7-2-.8-2.1-.6-1.2 1.1zm2 11c0 .5-.4 1-1 1-.5 0-1-.5-1-1 0-.6.5-1 1-1 .6 0 1 .4 1 1z"/><path d="M30.6 456.1c.3 7.4 1.8 16.1 4.2 24.3 1.1 3.8 1.8 7.5 1.5 8.2-.3.8.2 1.7 1.2 2 .9.4 1.4 1.3 1.1 2-.3.8-.2 1.4.3 1.4s1.1 1.4 1.5 3.1c.5 2.7.9 3 3.8 2.7 2.4-.2 3.3-.8 3.2-2-.1-1 .2-1.6.6-1.3.4.2 1-6.7 1.4-15.5.6-14 .5-16.3-1-18.5-1.3-2-1.4-2.9-.5-3.8 1.4-1.4 1.4-2.7 0-2.7-.5 0-1.7 1.6-2.5 3.5-1.6 4-1.7 4.8-.5 4.1.5-.4.6.9.1 2.9-.4 1.9-.5 3.5-.1 3.5.9 0 .6 11.3-.3 12.8-.3.6-.1 1.2.6 1.4.7.3.9 1.2.4 2.4-.7 1.8-.8 1.7-2.1-.6-.8-1.4-1.4-3.5-1.5-4.7 0-1.2-.4-2.5-1-2.8-.5-.3-1-1.7-1-3.1 0-1.3-.4-2.4-1-2.4-.5 0-1-1.5-1-3.3 0-1.7-1.1-5.4-2.5-8.1-1.4-2.7-2.5-5.5-2.5-6.1 0-.6-.6-1.9-1.3-2.9-1.2-1.6-1.3-1.2-1.1 3.5zM46 491.5c0 1.4-.2 2.5-.4 2.5s-.6-1.1-.8-2.5c-.3-1.4-.1-2.5.3-2.5.5 0 .9 1.1.9 2.5zM414 455.3c0 1.5.4 2.7.9 2.7 1.7 0 1.9-1.5.5-3.5-1.3-1.8-1.4-1.8-1.4.8zM6 463.1c0 .5.5.7 1 .4.6-.3 1-.8 1-1.1 0-.2-.4-.4-1-.4-.5 0-1 .5-1 1.1zM413.5 462.9c-.6 1.1.9 2.3 1.9 1.4.9-.9.7-2.3-.3-2.3-.6 0-1.2.4-1.6.9zM56 466.1c0 .5.5.7 1 .4.6-.3 1-.8 1-1.1 0-.2-.4-.4-1-.4-.5 0-1 .5-1 1.1zM55.7 469.4c-1.8 1.4-2.3 3.6-.9 3.6s4.4-3.8 3.5-4.3c-.5-.3-1.6 0-2.6.7zM210.8 468.7c.7.3 1.6.2 1.9-.1.4-.3-.2-.6-1.3-.5-1.1 0-1.4.3-.6.6zM179 476.5c.7.8 1.7 1.5 2.2 1.5.5 0 .3-.7-.6-1.5-.8-.8-1.8-1.5-2.2-1.5-.3 0-.1.7.6 1.5zM462.6 476.9c-.8 1.2.3 4.1 1.5 4.1.5 0 .9-.4.9-.9s.3-1.6.6-2.5c.7-1.7-2-2.3-3-.7zM473.3 480.7c-1.5.5-1.7 2.3-.4 2.3.5 0 1.1-.7 1.5-1.5.3-.8.4-1.5.3-1.4-.1 0-.8.3-1.4.6zM460 482.5c-.7.8-.9 1.5-.4 1.5s.2.4-.6 1c-.8.5-1.2 1.1-.9 1.4.3.3 1.6-.5 2.8-1.8 1.2-1.3 1.8-2.7 1.3-3-.5-.3-1.5.1-2.2.9zM7 483.4c0 .2.8 1 1.8 1.7 1.5 1.3 1.6 1.2.3-.4S7 482.6 7 483.4zM466.7 485c-2.8 1.7-6.4 6-5.2 6 2 0 9.5-5.7 9.5-7.2 0-1.2-1.1-.9-4.3 1.2zM220.3 484.7c-1.8.7-1.6 4.3.2 4.3.8 0 1.5-.4 1.5-.9s.3-1.6.6-2.5c.6-1.6 0-1.9-2.3-.9zM476.6 484.9c-.3.5.3 1.1 1.3 1.4 1.2.3 2.2-.1 2.5-.9.6-1.6-2.9-2-3.8-.5zM207.7 485.6c-.4.4-.7 1.4-.7 2.3 0 1.1.3 1.2 1.1.4.6-.6 1-1.6.7-2.3-.2-.6-.7-.8-1.1-.4zM457.8 491c-.5 3.2-.1 3.5 2.1 2.1 1-.7 1.1-1.3.2-3-1.5-2.8-1.8-2.7-2.3.9zM475 488.7c-.8.3-1.9 1.1-2.5 1.7-2.3 2.7-10.3 7.4-11.1 6.6-.6-.6-1.5-.5-2.4 0-1 .7-1.1 1-.2 1.1 2.7.3 3.1.4 3.8 1.2.4.4 1.4.7 2.1.7 2 0 7.3-4.1 7.3-5.6 0-.7 1.4-2.1 3-3.1 1.7-.9 3-2.1 3-2.5 0-.9-.8-.9-3-.1zM183.5 490c-.3.5.1 1 .9 1 .9 0 1.6-.5 1.6-1 0-.6-.4-1-.9-1-.6 0-1.3.4-1.6 1zM452.3 490.8c-.6 1.1-.7 2.7-.2 4.2l.9 2.5-1.9-2.3c-2.5-2.8-3.1-2.8-3.1.3 0 1.3-.8 2.9-1.7 3.4-1.4.8-1 1 2.3 1.1 2.7 0 4.7-.7 6.2-2 2.3-2.1 2.7-3.1 1.5-2.9-.5.1-1.5.1-2.3 0-1.3-.1-1.2-.4.1-1.4 1.4-1 1.5-1.6.5-2.9-1.1-1.5-1.3-1.5-2.3 0zM178.7 494.4c-.6 1.6.2 2.8 1.4 2 1.2-.7 1.1-3.4 0-3.4-.5 0-1.1.6-1.4 1.4zM213 494.2c0 .9.5 2 1 2.3 1.3.8 1.3-.5 0-2.5-.8-1.3-1-1.3-1 .2zM218.5 495.9c-.6 1.1.9 2.3 1.9 1.4.9-.9.7-2.3-.3-2.3-.6 0-1.2.4-1.6.9zM287.7 497.7c-1 .9-.9 2.3.1 2.3.5 0 .9-.7.9-1.5 0-1.7-.1-1.8-1-.8z"/></svg>