<?xml version="1.0" standalone="no"?>
<!DOCTYPE svg PUBLIC "-//W3C//DTD SVG 20010904//EN"
 "http://www.w3.org/TR/2001/REC-SVG-20010904/DTD/svg10.dtd">
<svg version="1.0" xmlns="http://www.w3.org/2000/svg"
 width="311.000000pt" height="311.000000pt" viewBox="0 0 311.000000 311.000000"
 preserveAspectRatio="xMidYMid meet">
<metadata>
Created by potrace 1.11, written by Peter Selinger 2001-2013
</metadata>
<g transform="translate(0.000000,311.000000) scale(0.100000,-0.100000)"
fill="#000000" stroke="none">
<path d="M1925 3065 c-11 -8 -38 -28 -60 -45 -22 -16 -45 -34 -50 -38 -11 -9
-138 -62 -141 -59 -1 1 -4 28 -7 60 -3 32 -8 61 -11 64 -3 4 -54 -17 -113 -45
-60 -27 -162 -69 -228 -92 -137 -48 -173 -65 -267 -127 -80 -52 -142 -109
-178 -164 l-27 -40 -18 66 c-21 79 -21 79 -105 -49 -33 -50 -67 -100 -75 -111
-8 -10 -15 -25 -15 -32 0 -7 -5 -13 -11 -13 -5 0 -7 -4 -4 -10 3 -5 1 -10 -6
-10 -7 0 -9 -3 -6 -7 4 -3 3 -11 -2 -17 -48 -59 -61 -432 -24 -706 8 -64 9
-250 1 -250 -4 0 -9 4 -12 9 -6 10 -20 9 -49 -4 -52 -22 -64 -159 -32 -370 21
-139 60 -202 117 -191 18 4 28 1 29 -7 1 -6 3 -21 4 -32 2 -23 29 -119 54
-190 17 -52 61 -132 96 -175 31 -38 216 -221 264 -260 23 -19 51 -42 61 -50
10 -8 28 -23 39 -33 12 -9 26 -17 31 -17 6 0 10 -3 10 -8 0 -9 84 -48 125 -57
95 -23 289 -31 357 -15 52 12 200 85 206 101 2 5 12 9 22 9 10 0 20 3 22 8 2
4 30 25 63 47 61 41 121 85 164 120 64 53 141 142 141 163 0 6 3 12 8 12 8 0
38 61 34 73 -1 4 2 7 8 7 6 0 9 3 8 7 -1 5 3 17 9 28 6 11 11 22 11 25 0 3 6
18 12 34 6 16 12 38 14 50 3 17 9 20 38 18 28 -3 40 3 66 29 18 18 32 40 32
49 0 9 4 20 9 26 8 7 39 105 57 179 12 49 29 162 28 182 -3 46 -26 84 -55 90
-15 3 -26 10 -23 17 2 6 6 49 8 96 3 47 7 95 10 108 10 38 16 66 21 97 3 17 8
37 10 45 2 8 6 32 9 52 14 93 18 115 22 138 10 55 12 198 3 250 -6 30 -24 96
-40 145 -35 103 -154 351 -173 358 -8 3 -13 -7 -14 -32 -2 -20 -5 -45 -7 -56
-2 -11 -4 -27 -4 -34 -2 -28 -61 67 -106 168 -92 208 -128 258 -140 194 -2
-10 -4 -19 -5 -20 -2 -2 -3 -6 -5 -10 -13 -49 -20 -40 -46 63 -45 180 -52 189
-89 129 -12 -19 -25 -35 -29 -35 -4 0 -7 19 -6 43 3 68 -5 79 -40 52z"/>
</g>
</svg>
